<?xml version="1.0" standalone="no"?>
<!DOCTYPE svg PUBLIC "-//W3C//DTD SVG 1.1//EN" "http://www.w3.org/Graphics/SVG/1.1/DTD/svg11.dtd" >
<svg>
<metadata>
Created by FontForge 20120731 at Fri Apr 21 06:05:27 2023
 By www
Copyright (c) 2009 by Hannes von Doehren. All rights reserved.
</metadata>
<defs>
<font id="BrandonGrotW01-RegularIt" horiz-adv-x="439" >
  <font-face 
    font-family="BrandonGrotW01-RegularIt"
    font-weight="400"
    font-style="italic"
    font-stretch="normal"
    units-per-em="1000"
    panose-1="2 11 5 3 2 2 3 13 2 2"
    ascent="700"
    descent="-300"
    x-height="400"
    cap-height="700"
    bbox="-185 -310 887.222 976"
    underline-thickness="50"
    underline-position="-100"
    slope="-8"
    unicode-range="U+0002-2122"
  />
<missing-glyph horiz-adv-x="0" 
 />
    <glyph glyph-name=".notdef" horiz-adv-x="0" 
 />
    <glyph glyph-name=".null" horiz-adv-x="0" 
 />
    <glyph glyph-name="uni000D" unicode="&#xd;" horiz-adv-x="0" 
 />
    <glyph glyph-name="uni0002" horiz-adv-x="0" 
 />
    <glyph glyph-name="uni0009" unicode="&#x9;" horiz-adv-x="0" 
 />
    <glyph glyph-name="uni000A" unicode="&#xa;" horiz-adv-x="0" 
 />
    <glyph glyph-name="space" unicode=" " horiz-adv-x="222" 
 />
    <glyph glyph-name="exclam" unicode="!" horiz-adv-x="296" 
d="M141 272q-6 0 -10.5 5t-4.5 11l20 279l16 114q1 8 6.5 13.5t12.5 5.5h54q7 0 11.5 -5.5t3.5 -13.5l-16 -112l-60 -281q-2 -6 -7.5 -11t-11.5 -5h-14zM61 40q0 27 19.5 45.5t43.5 18.5q21 0 34.5 -14.5t13.5 -35.5q0 -26 -19 -45t-45 -19q-20 0 -33.5 15t-13.5 35z" />
    <glyph glyph-name="quotedbl" unicode="&#x22;" horiz-adv-x="294" 
d="M235 501q-7 0 -11.5 5.5t-2.5 13.5l22 161q2 8 7.5 13.5t12.5 5.5h37q9 0 13.5 -7t-0.5 -18l-49 -159q-2 -6 -8 -10.5t-11 -4.5h-10zM96 501q-7 0 -11 5.5t-3 13.5l23 161q1 8 6.5 13.5t12.5 5.5h38q8 0 12.5 -7t-0.5 -18l-49 -159q-2 -6 -7.5 -10.5t-10.5 -4.5h-11z" />
    <glyph glyph-name="numbersign" unicode="#" horiz-adv-x="501" 
d="M111 195h-63q-8 0 -12 5.5t-2 13.5l1 7q1 8 6.5 13.5t12.5 5.5h70l45 171h-64q-7 0 -11.5 5.5t-3.5 13.5l1 7q2 8 7 13.5t13 5.5h70l61 228q2 6 7 11t11 5h8q8 0 11.5 -6.5t1.5 -15.5l-58 -222h137l59 228q2 6 8 11t12 5h6q8 0 12.5 -6.5t1.5 -15.5l-58 -222h62
q8 0 12 -5.5t2 -13.5l-1 -7q-1 -8 -5.5 -13.5t-12.5 -5.5h-69l-45 -171h63q7 0 11.5 -5.5t2.5 -13.5l-1 -7q-1 -8 -6 -13.5t-12 -5.5h-71l-48 -179q-4 -16 -20 -16h-6q-8 0 -12 6.5t-2 15.5l47 173h-138l-48 -179q-2 -7 -7.5 -11.5t-11.5 -4.5h-6q-9 0 -12.5 6.5t-1.5 15.5z
M303 240l45 171h-137l-46 -171h138z" />
    <glyph glyph-name="dollar" unicode="$" horiz-adv-x="487" 
d="M27 76q-5 6 -6.5 12.5t8.5 16.5l20 21q9 9 16.5 11.5t15.5 -6.5q4 -6 13.5 -16.5t23.5 -22t33.5 -21t44.5 -13.5l37 258q-29 21 -55.5 40t-46.5 41t-32 48.5t-12 62.5q0 30 11 64.5t35 64t62 49.5t93 23l5 32q1 8 6.5 13.5t12.5 5.5h7q7 0 11.5 -5.5t2.5 -13.5l-5 -32
q29 -3 52 -10t39.5 -15.5t26.5 -15.5t13 -9q4 -3 8 -12t-7 -22l-15 -17q-8 -10 -16 -13.5t-17 4.5q-14 11 -37.5 24t-55.5 18l-37 -261q33 -18 60.5 -37.5t47.5 -42t31.5 -50.5t11.5 -64q0 -41 -15 -75.5t-42.5 -60.5t-65.5 -42t-84 -18l-14 -103q-2 -9 -8 -13.5t-14 -4.5
q-7 0 -13 4.5t-5 13.5l15 105q-36 4 -64 16t-48.5 25.5t-32.5 26t-15 16.5zM279 642q-30 -4 -51.5 -17.5t-36 -31.5t-21.5 -38.5t-7 -37.5q0 -38 21.5 -65t60.5 -50zM236 58q23 3 44 13.5t36.5 27t25 37t9.5 42.5q0 37 -21 64.5t-60 53.5z" />
    <glyph glyph-name="percent" unicode="%" horiz-adv-x="616" 
d="M181 440q-21 0 -39.5 9t-33 25t-23 37.5t-8.5 45.5q0 31 11 59t30 49t45 33t56 12q22 0 41 -9t33 -25t22 -37.5t8 -45.5q0 -32 -11.5 -60t-31 -48.5t-45.5 -32.5t-54 -12zM482 690q6 10 16 10h24q10 0 13.5 -8.5t-2.5 -18.5l-404 -663q-2 -3 -6 -6.5t-10 -3.5h-22
q-10 0 -13.5 8.5t2.5 18.5zM189 497q15 0 28.5 7t24 19t17 28t6.5 34q0 27 -15.5 46.5t-38.5 19.5q-15 0 -29.5 -7t-25 -19t-17 -28t-6.5 -34q0 -28 15.5 -47t40.5 -19zM300 107q0 31 11 59t30 49t45 33t56 12q22 0 41 -9t33 -25t22 -37.5t8 -45.5q0 -32 -11.5 -60
t-31 -48.5t-45.5 -32.5t-54 -12q-21 0 -39.5 9t-33 25t-23 37.5t-8.5 45.5zM356 113q0 -28 15.5 -47t40.5 -19q15 0 28.5 7t24 19t17 28t6.5 34q0 27 -15.5 46.5t-38.5 19.5q-15 0 -29.5 -7t-25 -19t-17 -28t-6.5 -34z" />
    <glyph glyph-name="ampersand" unicode="&#x26;" horiz-adv-x="608" 
d="M59 148q0 47 17 83.5t41.5 63.5t51 46.5t46.5 32.5v2l-19 26q-22 32 -35 66.5t-6 79.5q4 28 16 57t34 52.5t54.5 38t78.5 14.5q31 0 56 -11t43 -29t27.5 -42t9.5 -51q0 -42 -18 -76t-43.5 -60t-54 -45.5t-49.5 -34.5l116 -160q19 31 37 79.5t26 99.5q2 14 6.5 17t15.5 3
h33q12 0 13 -8.5t0 -14.5q-4 -29 -12.5 -60t-20 -61t-25 -57.5t-28.5 -49.5l73 -94q7 -10 9.5 -21t-17.5 -25l-13 -10q-11 -8 -20 -8t-17 12l-60 82q-26 -27 -58 -48q-27 -18 -64.5 -32.5t-82.5 -14.5q-35 0 -64.5 13t-51 34.5t-33.5 50t-12 60.5zM274 411q16 11 38 25.5
t42.5 33.5t35 43t14.5 54q0 16 -5 31t-14.5 27t-24.5 19t-35 7q-42 0 -69.5 -30.5t-34.5 -74.5q-5 -32 5 -58.5t31 -54.5zM130 156q0 -45 26 -72.5t71 -27.5q35 0 63.5 12.5t49.5 28.5q25 18 45 42l-132 190q-17 -12 -38.5 -28t-40 -37t-31.5 -48t-13 -60z" />
    <glyph glyph-name="quotesingle" unicode="'" horiz-adv-x="155" 
d="M96 501q-7 0 -11 5.5t-3 13.5l23 161q1 8 6.5 13.5t12.5 5.5h38q19 0 12 -25l-49 -159q-2 -6 -7.5 -10.5t-10.5 -4.5h-11z" />
    <glyph glyph-name="parenleft" unicode="(" horiz-adv-x="325" 
d="M59 208q0 139 26 233.5t66.5 153t90 84.5t96.5 29q15 1 15 -10l-2 -27q0 -7 -3.5 -11.5t-8.5 -5.5q-65 -14 -105.5 -57.5t-64 -105t-32 -136t-8.5 -149.5q0 -92 27 -154t88 -76q5 -1 7 -5.5t0 -11.5l-6 -27q-3 -12 -18 -10q-29 2 -59 18t-54 49.5t-39.5 87.5t-15.5 131z
" />
    <glyph glyph-name="parenright" unicode=")" horiz-adv-x="325" 
d="M-3 -24q64 14 104.5 57t64 104.5t32.5 135.5t9 151q0 92 -27.5 154t-87.5 76q-5 1 -7 5.5t0 11.5l6 27q3 12 18 10q28 -2 58 -17.5t54.5 -49.5t40 -88t15.5 -131q0 -139 -26 -233.5t-66.5 -153t-90 -84.5t-96.5 -29q-15 -2 -15 10l2 27q0 15 12 17z" />
    <glyph glyph-name="asterisk" unicode="*" horiz-adv-x="309" 
d="M165 415q-8 0 -12 5.5t-2 13.5l13 82l-68 -48q-6 -5 -12 -2.5t-10 8.5l-7 10q-4 7 -2 14.5t11 12.5l75 47l-64 47q-12 9 0 26l10 13q6 8 12 8.5t11 -4.5l56 -49l10 83q1 8 6.5 13t12.5 5h15q7 0 11.5 -5t2.5 -13l-13 -82l68 50q14 8 23 -6l6 -11q4 -7 1.5 -14t-9.5 -12
l-77 -49l64 -49q5 -5 5.5 -12.5t-4.5 -13.5l-9 -11q-5 -7 -12.5 -9t-12.5 3l-55 49l-10 -81q-1 -8 -6.5 -13.5t-12.5 -5.5h-15z" />
    <glyph glyph-name="plus" unicode="+" horiz-adv-x="458" 
d="M202 314h-140q-7 0 -11 5.5t-3 13.5l4 28q1 8 6.5 13.5t12.5 5.5h140l22 158q1 8 7 13t13 5h31q7 0 11 -5t3 -13l-22 -158h140q7 0 11 -5.5t3 -13.5l-4 -28q-1 -8 -6.5 -13.5t-12.5 -5.5h-140l-22 -157q-1 -8 -7 -13t-13 -5h-31q-7 0 -11.5 5t-3.5 13z" />
    <glyph glyph-name="comma" unicode="," horiz-adv-x="229" 
d="M25 40q0 27 19.5 45.5t45.5 18.5q20 0 36.5 -14t16.5 -54q0 -35 -11.5 -67t-28 -59t-35.5 -48t-33 -33q-13 -13 -21 -2l-11 14q-7 9 6 21q4 3 15.5 13.5t24 27t23.5 39t15 49.5q-3 -1 -14 -1q-20 0 -34 15t-14 35z" />
    <glyph glyph-name="hyphen" unicode="-" horiz-adv-x="391" 
d="M91 220q-8 0 -12.5 5t-2.5 13l3 19q3 19 20 19h191q17 0 14 -19l-3 -19q-2 -8 -7 -13t-13 -5h-190z" />
    <glyph glyph-name="period" unicode="." horiz-adv-x="221" 
d="M25 40q0 27 19.5 45.5t43.5 18.5q21 0 34.5 -14.5t13.5 -35.5q0 -26 -19 -45t-45 -19q-20 0 -33.5 15t-13.5 35z" />
    <glyph glyph-name="slash" unicode="/" horiz-adv-x="310" 
d="M19 0q-9 0 -13 7t0 18l270 662q2 5 6 9t12 4h27q10 0 13.5 -7t-0.5 -18l-269 -662q-2 -5 -6.5 -9t-11.5 -4h-28z" />
    <glyph glyph-name="zero" unicode="0" horiz-adv-x="593" 
d="M256 -9q-42 0 -75 18.5t-56.5 53t-35.5 82.5t-12 108q0 98 19 179t55 138.5t87.5 89t116.5 31.5q42 0 75 -18.5t56 -53t35 -82.5t12 -108q0 -98 -18.5 -179t-54 -138.5t-87 -89t-117.5 -31.5zM265 56q46 0 82 27t61 75.5t38.5 116.5t13.5 151q0 92 -29 146t-86 54
q-45 0 -81.5 -27t-61.5 -76t-38.5 -117.5t-13.5 -150.5q0 -93 29 -146t86 -53z" />
    <glyph glyph-name="one" unicode="1" horiz-adv-x="313" 
d="M179 556l-75 -56q-6 -5 -11.5 -5t-8.5 6l-14 23q-3 6 0 11t7 9l145 136h31q7 0 11 -5.5t3 -13.5l-91 -642q-1 -8 -6.5 -13.5t-12.5 -5.5h-39q-8 0 -12 5.5t-3 13.5z" />
    <glyph glyph-name="two" unicode="2" horiz-adv-x="482" 
d="M12 49l257 263q58 60 85.5 109.5t27.5 91.5q0 19 -5.5 38t-18 35t-32.5 26t-49 10q-20 0 -39 -7t-36 -18t-32 -24.5t-27 -25.5t-24 0l-19 19q-5 5 -4 12.5t6 13.5q24 27 53 49q25 18 58.5 33.5t74.5 15.5q42 0 74 -13.5t53.5 -36.5t32.5 -53t11 -63q0 -39 -11 -72
t-29.5 -63t-44.5 -59t-56 -60l-200 -205h257q7 0 11.5 -5.5t3.5 -13.5l-4 -27q-1 -8 -7 -13.5t-13 -5.5h-344q-8 0 -12 5.5t-2 13.5z" />
    <glyph glyph-name="three" unicode="3" horiz-adv-x="497" 
d="M21 79q-4 5 -2.5 12t7.5 12l28 20q13 9 23 -5q3 -5 12.5 -15.5t25 -22t37 -20t49.5 -8.5q27 0 52.5 9t46 26.5t32.5 43.5t12 60q0 22 -8 43.5t-24.5 37.5t-42.5 26t-62 10h-50q-17 0 -14 22l3 24q3 22 22 22h50q38 0 67.5 11t49 30.5t29.5 44.5t10 54q0 50 -29 79t-68 29
q-22 0 -40.5 -6.5t-34 -16.5t-27.5 -21.5t-20 -20.5q-12 -12 -24 -2l-23 19q-5 5 -3 13t7 13q21 25 47 44q23 17 54.5 30.5t70.5 13.5q34 0 64.5 -11.5t53 -33t36 -52.5t13.5 -70q0 -32 -11.5 -59.5t-29 -50t-38 -39t-38.5 -25.5v-3q13 -7 28.5 -20.5t28.5 -33t21.5 -43
t8.5 -49.5q0 -44 -16 -82t-45.5 -66.5t-72 -45t-96.5 -16.5q-39 0 -68.5 10.5t-49.5 24.5t-33 29.5t-19 24.5z" />
    <glyph glyph-name="four" unicode="4" horiz-adv-x="540" 
d="M19 154q-8 0 -12 5.5t-3 13.5l5 37l406 475q6 6 14 6h23q7 0 11.5 -5.5t2.5 -13.5l-63 -457h73q8 0 11.5 -5t2.5 -13l-3 -22q-1 -8 -6.5 -13.5t-13.5 -5.5h-72l-19 -137q-2 -8 -7.5 -13.5t-12.5 -5.5h-38q-7 0 -11.5 5.5t-2.5 13.5l19 135h-304zM335 216l49 346
l-290 -346h241z" />
    <glyph glyph-name="five" unicode="5" horiz-adv-x="498" 
d="M39 73q-8 11 -8 18.5t11 15.5l24 19q8 5 13 5t12 -11q4 -6 12 -17.5t22 -22t34.5 -18.5t49.5 -8q35 0 65 16.5t51.5 43.5t34 60.5t12.5 67.5q0 24 -7 46t-21 38.5t-36.5 26t-52.5 9.5h-138q-14 0 -19.5 11.5t-3.5 23.5l38 264q1 8 6 13.5t13 5.5h274q8 0 12.5 -5.5
t2.5 -13.5l-5 -29q-2 -8 -6.5 -13.5t-12.5 -5.5h-224l-26 -184h100q88 0 134.5 -46.5t46.5 -126.5q0 -55 -18 -103.5t-50.5 -84.5t-77.5 -57t-99 -21q-35 0 -62.5 8.5t-47.5 21.5t-33 27.5t-20 25.5z" />
    <glyph glyph-name="six" unicode="6" horiz-adv-x="507" 
d="M51 215q0 77 19.5 141t51.5 115t71.5 90t80 67t77 46.5t62.5 28.5q14 6 19 -10l9 -27q7 -20 -20 -29q-16 -6 -52 -26t-76.5 -52t-77.5 -74.5t-56 -93.5q1 0 12.5 7t30.5 15.5t43.5 15.5t51.5 7q34 0 63.5 -13t52 -37.5t35.5 -58.5t13 -76q0 -54 -19 -101.5t-51.5 -83
t-75 -56t-89.5 -20.5q-46 0 -79 17.5t-54.5 48.5t-31.5 71.5t-10 87.5zM235 56q30 0 58 14.5t49.5 39.5t34.5 58t13 70q0 28 -8 52t-23 42t-35.5 28.5t-44.5 10.5q-30 0 -56.5 -10t-46 -22.5t-31 -22.5l-11.5 -10q-10 -38 -11.5 -81.5t9 -81t35.5 -62.5t68 -25z" />
    <glyph glyph-name="seven" unicode="7" horiz-adv-x="432" 
d="M42 30l333 583h-289q-7 0 -11 5.5t-3 13.5l4 29q1 8 7 13.5t13 5.5h363q7 0 11.5 -5.5t3.5 -13.5l-1 -7l-362 -638q-6 -11 -10.5 -13.5t-12.5 -2.5h-33q-7 0 -11.5 4t-3.5 10z" />
    <glyph glyph-name="eight" unicode="8" horiz-adv-x="535" 
d="M48 157q0 39 14.5 71t35.5 56.5t44.5 41t40.5 24.5v3q-12 7 -25 19.5t-23.5 30t-17.5 39t-7 45.5q0 45 17 82t46 64t68.5 42t83.5 15q75 0 120 -43.5t45 -114.5q0 -35 -11.5 -64.5t-29 -52t-37.5 -38t-38 -24.5l-1 -3q13 -7 28.5 -20.5t28.5 -32.5t21.5 -43t8.5 -52
q0 -43 -16.5 -81.5t-47.5 -67.5t-74 -46t-96 -17q-42 0 -75.5 13t-56 35.5t-34.5 53t-12 65.5zM283 385q68 8 100 46t32 92q0 48 -28 77.5t-73 29.5q-26 0 -49.5 -10.5t-41.5 -29.5t-28.5 -45.5t-10.5 -58.5q0 -39 23.5 -67t75.5 -34zM124 159q0 -50 32 -79.5t78 -29.5
q30 0 57.5 10t47.5 28t32 44t12 59q0 21 -7 41t-21 36.5t-34.5 28t-47.5 14.5q-35 -4 -62.5 -18.5t-46.5 -35t-29.5 -46t-10.5 -52.5z" />
    <glyph glyph-name="nine" unicode="9" horiz-adv-x="506" 
d="M84 20q-2 9 2 16.5t18 12.5q16 6 52 26t76.5 52t77.5 74.5t56 93.5q-1 0 -12.5 -7t-30 -15.5t-43 -15.5t-51.5 -7q-32 0 -62 13t-53 37.5t-36.5 58.5t-13.5 76q0 55 19 102.5t51 83t74.5 55.5t90.5 20q44 0 77 -17.5t54.5 -48t32.5 -71.5t11 -87q0 -78 -19.5 -141.5
t-51 -114.5t-71 -90t-80 -67.5t-77.5 -47t-63 -28.5q-15 -6 -19 10zM246 315q30 0 56.5 10t46 22.5t31 22.5t12.5 10q10 37 11.5 81t-9.5 81.5t-36 62.5t-68 25q-30 0 -58 -14.5t-49 -39.5t-34 -58t-13 -70q0 -28 8 -52t22.5 -42t35 -28.5t44.5 -10.5z" />
    <glyph glyph-name="colon" unicode=":" horiz-adv-x="249" 
d="M127 296q-20 0 -33 15t-13 35q0 27 19 45.5t43 18.5q20 0 33 -14.5t13 -34.5q0 -26 -18.5 -45.5t-43.5 -19.5zM38 40q0 27 19 45.5t43 18.5q20 0 33 -14.5t13 -34.5q0 -26 -18.5 -45.5t-43.5 -19.5q-20 0 -33 15t-13 35z" />
    <glyph glyph-name="semicolon" unicode=";" horiz-adv-x="254" 
d="M128 296q-20 0 -33 15t-13 35q0 27 19 45.5t43 18.5q20 0 33 -14.5t13 -34.5q0 -26 -18.5 -45.5t-43.5 -19.5zM36 40q0 27 19.5 45.5t45.5 18.5q20 0 36.5 -14t16.5 -54q0 -35 -11.5 -67t-28 -59t-35.5 -48t-33 -33q-13 -13 -21 -2l-11 14q-7 9 6 21q4 3 15.5 13.5t24 27
t23.5 39t15 49.5q-3 -1 -14 -1q-20 0 -34 15t-14 35z" />
    <glyph glyph-name="less" unicode="&#x3c;" horiz-adv-x="406" 
d="M25 210q-4 3 -6.5 7.5t-1.5 9.5l1 7q1 8 12 15l336 212q12 8 21 2.5t7 -18.5l-5 -39q-2 -11 -15 -19l-258 -161l214 -153q5 -3 7.5 -8.5t1.5 -10.5l-6 -38q-2 -12 -12.5 -14.5t-18.5 3.5z" />
    <glyph glyph-name="equal" unicode="=" horiz-adv-x="480" 
d="M112 351q-7 0 -11 5.5t-3 13.5l4 30q2 8 7 13.5t13 5.5h273q8 0 12 -5.5t2 -13.5l-4 -30q-1 -8 -6.5 -13.5t-13.5 -5.5h-273zM83 140q-8 0 -12 5.5t-3 13.5l5 31q1 8 6.5 13.5t12.5 5.5h273q8 0 12 -5.5t3 -13.5l-5 -31q-1 -8 -6 -13.5t-13 -5.5h-273z" />
    <glyph glyph-name="greater" unicode="&#x3e;" horiz-adv-x="405" 
d="M4 59q1 8 5 12t9 7l259 155l-214 161q-5 4 -8 8t-2 11l5 32q2 13 12.5 18.5t20.5 -2.5l276 -212q9 -8 8 -15l-1 -8q-1 -5 -4.5 -9t-8.5 -7l-335 -205q-11 -7 -20 -2.5t-7 17.5z" />
    <glyph glyph-name="question" unicode="?" horiz-adv-x="434" 
d="M182 272q-16 0 -14 19l6 42q4 26 13.5 44.5t22.5 33t28 26t29 23.5q14 11 28 21.5t25.5 23.5t18.5 29t7 39q0 30 -21.5 52.5t-59.5 22.5q-26 0 -46 -8t-35 -19t-26 -23t-19 -20q-7 -7 -12 -6.5t-11 5.5l-18 15q-8 8 -6 16t6 14q3 4 14 18.5t32.5 30t54 27.5t78.5 12
q30 0 56 -9.5t44.5 -27t29 -41.5t10.5 -54q0 -32 -9.5 -56t-25 -43t-34.5 -34.5t-37 -29.5q-26 -19 -45.5 -37t-23.5 -45l-6 -41q-2 -11 -8 -15.5t-13 -4.5h-33zM120 40q0 27 19.5 45.5t44.5 18.5q21 0 34 -14.5t13 -35.5q0 -26 -19 -45t-44 -19q-21 0 -34.5 15t-13.5 35z
" />
    <glyph glyph-name="at" unicode="@" horiz-adv-x="897" 
d="M36 223q15 106 55 195.5t102 154.5t144 101t181 36q88 0 155 -32t109 -88.5t58.5 -134t3.5 -167.5q-7 -50 -23.5 -102.5t-45 -96t-69 -71.5t-94.5 -28q-22 0 -37.5 7t-26 18t-17 25t-9.5 28h-1q-18 -31 -54.5 -54.5t-78.5 -23.5q-35 0 -62.5 15t-45 42.5t-24 66.5t0.5 87
q7 50 25.5 89t45 65.5t58.5 40.5t67 14q23 0 40 -7.5t29 -15.5q14 -10 25 -22l7 20q4 11 7.5 13t13.5 2h19q6 0 10.5 -5.5t3.5 -13.5l-29 -213q-8 -63 5 -91.5t39 -28.5q25 0 50 15.5t46.5 46t38 75.5t24.5 103q11 77 0 143.5t-44.5 116t-89.5 78t-136 28.5t-149.5 -30
t-123.5 -85.5t-90.5 -135.5t-50.5 -180q-10 -72 -1 -132.5t33.5 -109.5t62.5 -86.5t86 -61.5q10 -6 10.5 -11.5t-3.5 -13.5l-14 -27q-9 -16 -23 -8q-56 28 -100.5 71.5t-73.5 100.5t-39.5 127t0.5 151zM322 156q0 -51 21.5 -76.5t52.5 -25.5q22 0 41 11.5t34 28t25 34.5
t13 32l18 123q-5 17 -16 30q-9 11 -25 20.5t-39 9.5q-22 0 -44.5 -12t-40.5 -36t-29 -59t-11 -80z" />
    <glyph glyph-name="A" unicode="A" horiz-adv-x="605" 
d="M-13 0q-11 0 -14 8t2 18l369 673q5 11 17 11h9q10 0 14 -11l178 -673q2 -10 -3.5 -18t-15.5 -8h-42q-7 0 -10.5 3.5t-4.5 7.5l-40 165h-312l-85 -165q-2 -4 -6.5 -7.5t-12.5 -3.5h-43zM427 238l-79 328h-6l-171 -328h256z" />
    <glyph glyph-name="B" unicode="B" horiz-adv-x="581" 
d="M156 681q2 8 7 13.5t13 5.5h199q37 0 67 -12.5t51 -34.5t32 -50.5t11 -61.5q0 -35 -10.5 -64t-27 -52t-37 -40.5t-39.5 -28.5q15 -8 30.5 -20t28.5 -29t21 -40t8 -51q0 -46 -16 -85.5t-45 -68.5t-70.5 -45.5t-93.5 -16.5h-207q-8 0 -12 5.5t-3 13.5zM329 386
q28 0 50.5 11.5t38.5 31.5t24.5 47t8.5 57q0 44 -22 71t-66 27h-138l-35 -245h139zM299 67q26 0 49 11t40.5 30.5t27.5 45.5t10 55q0 47 -30.5 77.5t-76.5 30.5h-140l-35 -250h155z" />
    <glyph glyph-name="C" unicode="C" horiz-adv-x="650" 
d="M61 301q0 84 28.5 158.5t79.5 130t120.5 88t150.5 32.5q69 0 116.5 -24.5t88.5 -68.5q5 -5 4.5 -14t-7.5 -14l-29 -23q-8 -6 -13 -4.5t-13 9.5q-25 29 -68.5 48t-88.5 19q-57 0 -109 -26.5t-91.5 -71.5t-63 -104.5t-23.5 -125.5q0 -50 15 -94.5t42 -78.5t65 -54t84 -20
q56 0 96 24t78 54q8 6 13.5 6t8.5 -3l31 -30q6 -6 3.5 -14t-7.5 -13q-53 -51 -113 -74t-120 -23q-56 0 -106.5 24.5t-88.5 66.5t-60.5 98.5t-22.5 121.5z" />
    <glyph glyph-name="D" unicode="D" horiz-adv-x="690" 
d="M156 681q1 8 6.5 13.5t12.5 5.5h203q59 0 108.5 -25.5t85.5 -68t56.5 -97.5t20.5 -113q0 -81 -29 -153t-79 -126t-117 -85.5t-144 -31.5h-204q-7 0 -11 5.5t-2 13.5zM275 69q60 0 112.5 24.5t92 67.5t62.5 102.5t23 130.5q0 52 -15 95.5t-42.5 75t-66 49.5t-86.5 18h-130
l-79 -563h129z" />
    <glyph glyph-name="E" unicode="E" horiz-adv-x="548" 
d="M156 681q1 8 6.5 13.5t12.5 5.5h357q8 0 12 -5.5t2 -13.5l-4 -29q-1 -8 -6.5 -13.5t-13.5 -5.5h-296l-35 -244h253q7 0 11.5 -5.5t2.5 -13.5l-4 -29q-1 -8 -6.5 -13.5t-12.5 -5.5h-253l-36 -255h297q8 0 12 -5.5t2 -13.5l-4 -29q-1 -8 -6.5 -13.5t-13.5 -5.5h-356
q-8 0 -12 5.5t-2 13.5z" />
    <glyph glyph-name="F" unicode="F" horiz-adv-x="528" 
d="M156 681q1 8 6.5 13.5t12.5 5.5h357q8 0 12 -5.5t2 -13.5l-4 -29q-1 -8 -6.5 -13.5t-13.5 -5.5h-296l-39 -274h253q7 0 11.5 -5.5t2.5 -13.5l-4 -29q-1 -8 -7 -13.5t-13 -5.5h-252l-39 -273q-1 -8 -6.5 -13.5t-12.5 -5.5h-43q-8 0 -12 5.5t-2 13.5z" />
    <glyph glyph-name="G" unicode="G" horiz-adv-x="676" 
d="M61 301q0 84 29 158.5t79.5 130t120 88t150.5 32.5q69 0 117 -24.5t89 -68.5q5 -5 4.5 -14t-7.5 -14l-35 -29q-8 -6 -13 -4.5t-13 9.5q-25 29 -65 51t-85 22q-57 0 -109 -26t-91.5 -70.5t-63 -103.5t-23.5 -125q0 -50 14.5 -95t41.5 -79.5t65 -54.5t84 -20q34 0 62.5 6.5
t49.5 14.5t33.5 14.5t13.5 6.5l20 143h-99q-8 0 -12 5t-2 13l5 34q1 8 6.5 13.5t13.5 5.5h158q6 0 10.5 -5t3.5 -12l-32 -233q-2 -12 -10 -16q-30 -18 -67 -32q-32 -12 -74 -22t-91 -10q-58 0 -108.5 24.5t-88 66.5t-59.5 98.5t-22 121.5z" />
    <glyph glyph-name="H" unicode="H" horiz-adv-x="707" 
d="M156 681q2 8 7.5 13.5t12.5 5.5h43q8 0 12 -5.5t3 -13.5l-42 -292h354l41 292q2 8 7 13.5t13 5.5h43q7 0 11.5 -5.5t2.5 -13.5l-93 -662q-1 -8 -6.5 -13.5t-12.5 -5.5h-43q-8 0 -12 5.5t-3 13.5l43 303h-354l-43 -303q-1 -8 -6 -13.5t-13 -5.5h-43q-7 0 -11.5 5.5
t-3.5 13.5z" />
    <glyph glyph-name="I" unicode="I" horiz-adv-x="276" 
d="M156 681q1 8 6.5 13.5t12.5 5.5h44q7 0 11.5 -5.5t2.5 -13.5l-93 -662q-1 -8 -6.5 -13.5t-12.5 -5.5h-44q-7 0 -11.5 5.5t-2.5 13.5z" />
    <glyph glyph-name="J" unicode="J" horiz-adv-x="386" 
d="M-39 62q-5 8 -3 15t7 12l22 20q9 8 16 6t15 -12q4 -6 12 -13.5t19 -14.5t24.5 -12t29.5 -5q17 0 35.5 8.5t35 26.5t29 46t18.5 68l67 474q1 8 6.5 13.5t13.5 5.5h43q8 0 12 -5.5t2 -13.5l-66 -472q-16 -112 -65.5 -165.5t-135.5 -53.5q-29 0 -52 8.5t-40 20t-28.5 23.5
t-16.5 20z" />
    <glyph glyph-name="K" unicode="K" horiz-adv-x="572" 
d="M156 676q2 10 8.5 17t16.5 7h34q9 0 15 -7t4 -17l-40 -283l314 297q3 4 8.5 7t9.5 3h52q12 0 17.5 -10.5t-6.5 -21.5l-326 -306l237 -336q5 -5 1.5 -15.5t-18.5 -10.5h-48q-5 0 -9.5 2.5t-5.5 4.5l-233 335l-45 -318q-2 -10 -9 -17t-16 -7h-34q-10 0 -15 7t-4 17z" />
    <glyph glyph-name="L" unicode="L" horiz-adv-x="449" 
d="M156 681q2 8 7 13.5t13 5.5h43q7 0 11.5 -5.5t3.5 -13.5l-87 -614h255q7 0 11 -5.5t3 -13.5l-4 -29q-2 -8 -7 -13.5t-13 -5.5h-314q-8 0 -12 5.5t-3 13.5z" />
    <glyph glyph-name="M" unicode="M" horiz-adv-x="793" 
d="M226 696q4 14 21 14h14q16 0 18 -11l97 -549h2l253 549q5 11 19 11h14q8 0 13 -4t5 -10l22 -672q0 -11 -6 -17.5t-17 -6.5h-35q-9 0 -13.5 4.5t-4.5 9.5l-10 500h-1l-235 -513q-6 -11 -19 -11h-13q-16 0 -18 11l-92 522h-1l-151 -509q-2 -5 -7 -9.5t-14 -4.5h-35
q-11 0 -14.5 7t-0.5 17z" />
    <glyph glyph-name="N" unicode="N" horiz-adv-x="716" 
d="M157 692q1 8 7.5 13t14.5 5h25l322 -561h1l75 532q1 8 7.5 13.5t15.5 5.5h32q8 0 13 -5.5t4 -13.5l-95 -673q-1 -8 -7.5 -13t-14.5 -5h-25l-323 571h-2l-73 -542q-1 -8 -8 -13.5t-15 -5.5h-32q-8 0 -12.5 5.5t-3.5 13.5z" />
    <glyph glyph-name="O" unicode="O" horiz-adv-x="758" 
d="M340 -10q-66 0 -121.5 28t-93.5 76.5t-55.5 114t-7.5 140.5q11 75 44.5 141t83 114.5t113 77t134.5 28.5q66 0 122 -28.5t94 -77t55.5 -114.5t6.5 -141t-44 -140.5t-82.5 -114t-113 -76.5t-135.5 -28zM348 60q53 0 102.5 23t90 62t68 91.5t35.5 112.5q9 60 -4 112.5
t-42 92.5t-72.5 63t-96.5 23t-102.5 -23t-89.5 -63t-67.5 -92.5t-36.5 -112.5q-8 -60 4.5 -112.5t42 -91.5t72.5 -62t96 -23z" />
    <glyph glyph-name="P" unicode="P" horiz-adv-x="554" 
d="M156 681q2 8 7 13.5t13 5.5h201q37 0 69 -16t55 -42.5t36 -61.5t13 -73q0 -52 -18.5 -98t-50.5 -80.5t-75 -54.5t-91 -20h-142l-33 -235q-2 -8 -7.5 -13.5t-12.5 -5.5h-42q-8 0 -12 5.5t-3 13.5zM320 326q29 0 56.5 14t49 37.5t34.5 55t13 67.5q0 26 -8.5 49t-23.5 39.5
t-35 26t-44 9.5h-137l-42 -298h137z" />
    <glyph glyph-name="Q" unicode="Q" horiz-adv-x="759" 
d="M340 -10q-65 0 -120.5 28t-94 76.5t-56 114t-6.5 140.5q10 75 43.5 141t83 114.5t113 77t134.5 28.5q66 0 122 -28.5t94 -77t55.5 -114.5t7.5 -141q-8 -55 -29 -105.5t-52.5 -93t-71.5 -76t-85 -54.5l79 -188q5 -10 -0.5 -20t-21.5 -10h-42q-12 0 -19 16l-68 177
q-16 -3 -33 -4t-33 -1zM348 60q53 0 102.5 23t90 62t68 91.5t36.5 112.5q8 60 -5 112.5t-42 92.5t-72.5 63t-96.5 23t-102.5 -23t-89.5 -63t-67.5 -92.5t-35.5 -112.5q-9 -60 3.5 -112.5t42 -91.5t72.5 -62t96 -23z" />
    <glyph glyph-name="R" unicode="R" horiz-adv-x="612" 
d="M156 681q1 8 6.5 13.5t12.5 5.5h225q41 0 74.5 -15.5t57 -42t36.5 -62t13 -75.5q0 -36 -12 -71t-33.5 -65t-51.5 -52.5t-67 -34.5l87 -253q4 -10 -1 -19.5t-16 -9.5h-49q-5 0 -8.5 3t-4.5 6l-82 265h-168l-36 -255q-1 -8 -6.5 -13.5t-12.5 -5.5h-43q-8 0 -12 5.5t-2 13.5
zM349 340q32 0 60 13t48.5 35t32.5 52t12 64q0 25 -8 47t-23 39t-35.5 27t-45.5 10h-163l-41 -287h163z" />
    <glyph glyph-name="S" unicode="S" horiz-adv-x="501" 
d="M34 76q-5 6 -6.5 12.5t8.5 16.5l16 17q9 9 16.5 11.5t15.5 -6.5q5 -6 16.5 -17.5t29.5 -23.5t42.5 -20.5t55.5 -8.5q25 0 48.5 10t41.5 26.5t29 38.5t11 46q0 47 -34 79.5t-96 68.5q-30 17 -54.5 35t-42.5 39t-27.5 47t-9.5 61q0 31 11 66.5t36 65.5t66.5 50t103.5 20
q36 0 63.5 -7t47 -16t30.5 -17t14 -11q4 -3 7.5 -11.5t-6.5 -22.5l-11 -16q-8 -10 -16 -13.5t-17 4.5q-8 6 -21 13.5t-28.5 14t-33.5 11t-36 4.5q-34 0 -59.5 -12.5t-42 -31.5t-24.5 -41t-8 -41q0 -42 26.5 -71.5t74.5 -55.5q36 -20 67 -39.5t53.5 -43.5t35.5 -53t13 -68
q0 -42 -14.5 -77.5t-42.5 -62t-69 -41.5t-93 -15q-42 0 -75 11.5t-56.5 26.5t-37.5 29t-18 19z" />
    <glyph glyph-name="T" unicode="T" horiz-adv-x="435" 
d="M227 633h-153q-8 0 -12 5.5t-2 13.5l4 29q1 8 6.5 13.5t12.5 5.5h384q8 0 12 -5.5t2 -13.5l-4 -29q-1 -8 -6.5 -13.5t-13.5 -5.5h-153l-86 -614q-2 -8 -7.5 -13.5t-12.5 -5.5h-42q-7 0 -11.5 5.5t-3.5 13.5z" />
    <glyph glyph-name="U" unicode="U" horiz-adv-x="664" 
d="M148 681q2 8 7.5 13.5t12.5 5.5h43q8 0 12 -5.5t2 -13.5l-58 -417q-6 -43 0 -80t23 -64.5t45 -43t66 -15.5t71 16.5t58 44t41.5 64t22.5 76.5l59 419q1 8 6.5 13.5t12.5 5.5h43q7 0 11.5 -5.5t2.5 -13.5l-59 -423q-8 -57 -29.5 -106t-57 -85t-83.5 -56.5t-108 -20.5
q-51 0 -92 20.5t-68 56.5t-39 85t-4 106z" />
    <glyph glyph-name="V" unicode="V" horiz-adv-x="606" 
d="M63 674q-2 10 3.5 18t15.5 8h41q6 0 9.5 -3.5t4.5 -7.5l138 -558h4l294 558q2 4 5.5 7.5t11.5 3.5h49q10 0 13 -8t-2 -18l-369 -673q-6 -11 -17 -11h-9q-9 0 -13 11z" />
    <glyph glyph-name="W" unicode="W" horiz-adv-x="824" 
d="M95 676q-2 11 4 17.5t15 6.5h42q6 0 10 -4.5t5 -9.5l47 -516h3l224 529q5 11 17 11h16q12 0 14 -11l77 -529h3l191 516q2 5 7.5 9.5t10.5 4.5h48q10 0 13.5 -6.5t-0.5 -17.5l-265 -672q-5 -14 -18 -14h-14q-12 0 -14 11l-81 539h-4l-230 -539q-5 -11 -17 -11h-14
q-13 0 -15 14z" />
    <glyph glyph-name="X" unicode="X" horiz-adv-x="547" 
d="M18 0q-13 0 -16.5 7.5t3.5 17.5l232 334l-134 318q-4 10 1 16.5t16 6.5h48q10 0 14 -9l107 -271h1l180 271q6 9 17 9h55q11 0 15 -8t-3 -18l-221 -315l137 -334q5 -11 0 -18t-16 -7h-49q-6 0 -9.5 3.5t-4.5 5.5l-110 288h-2l-194 -288q-5 -9 -17 -9h-50z" />
    <glyph glyph-name="Y" unicode="Y" horiz-adv-x="518" 
d="M227 337l-170 339q-5 9 -1 16.5t15 7.5h46q5 0 8.5 -3t5.5 -6l139 -285h2l222 285q2 3 6.5 6t9.5 3h48q11 0 14 -9.5t-4 -19.5l-264 -333l-45 -319q-1 -8 -7 -13.5t-13 -5.5h-42q-8 0 -12 5.5t-3 13.5z" />
    <glyph glyph-name="Z" unicode="Z" horiz-adv-x="493" 
d="M10 0q-7 0 -11.5 5.5t-2.5 13.5l2 18l404 593h-277q-7 0 -12 5.5t-3 13.5l5 32q2 8 7.5 13.5t12.5 5.5h366q7 0 11.5 -5.5t2.5 -13.5l-2 -13l-407 -598h288q8 0 12.5 -5.5t2.5 -13.5l-5 -32q-2 -8 -7 -13.5t-13 -5.5h-374z" />
    <glyph glyph-name="bracketleft" unicode="[" horiz-adv-x="308" 
d="M194 -237q7 0 11 -5t3 -13l-3 -26q-1 -8 -7 -13.5t-13 -5.5h-173q-7 0 -11.5 5.5t-3.5 13.5l136 962q1 8 6.5 13.5t12.5 5.5h174q7 0 11 -5.5t3 -13.5l-3 -25q-1 -8 -7 -13.5t-13 -5.5h-123l-123 -874h123z" />
    <glyph glyph-name="backslash" unicode="\" horiz-adv-x="308" 
d="M82 675q-2 11 4 18t15 7h32q13 0 15 -13l83 -662q2 -11 -4.5 -18t-15.5 -7h-33q-5 0 -9 4t-5 9z" />
    <glyph glyph-name="bracketright" unicode="]" horiz-adv-x="309" 
d="M92 -237l123 874h-122q-7 0 -12 5.5t-3 13.5l4 25q2 8 7 13.5t12 5.5h174q7 0 11 -5.5t3 -13.5l-135 -962q-2 -8 -7.5 -13.5t-12.5 -5.5h-173q-7 0 -12 5.5t-3 13.5l4 26q2 8 7.5 13t12.5 5h122z" />
    <glyph glyph-name="asciicircum" unicode="^" horiz-adv-x="472" 
d="M66 398q-11 0 -13.5 9.5t5.5 18.5l221 278q3 4 7 7t10 3h5q10 0 14 -10l140 -283q5 -9 0 -16t-16 -7h-37q-6 0 -9.5 3.5t-5.5 7.5l-100 208h-4l-159 -208q-3 -4 -8 -7.5t-10 -3.5h-40z" />
    <glyph glyph-name="underscore" unicode="_" horiz-adv-x="357" 
d="M276 -10q16 0 14 -19l-2 -16q-1 -8 -6.5 -13t-13.5 -5h-275q-8 0 -11.5 5t-2.5 13l2 16q1 8 6.5 13.5t13.5 5.5h275z" />
    <glyph glyph-name="grave" unicode="`" horiz-adv-x="272" 
d="M99 626q-9 5 -10 11.5t3 12.5l21 34q5 7 12.5 6.5t11.5 -3.5l125 -84q4 -2 5.5 -7.5t-2.5 -11.5l-12 -20q-6 -10 -22 -2z" />
    <glyph glyph-name="a" unicode="a" 
d="M344 15q-2 -15 -18 -15h-22q-11 0 -13 15l-4 27q-1 0 -9.5 -8t-24 -18t-37 -18t-48.5 -8q-30 0 -55.5 14t-44 38t-29 56.5t-10.5 68.5q0 57 16 102t43 76.5t63 48t77 16.5q24 0 42.5 -7.5t30.5 -15.5q14 -10 24 -22l13 26q4 9 14 9h22q14 0 13 -16zM308 296q-7 13 -19 24
q-11 9 -27.5 16.5t-39.5 7.5q-22 0 -44 -9.5t-40 -31t-29 -55t-11 -81.5q0 -21 5.5 -41.5t16 -36.5t27 -26t38.5 -10q24 0 42.5 10t32.5 23q16 14 28 33z" />
    <glyph glyph-name="b" unicode="b" horiz-adv-x="450" 
d="M126 681q1 8 6.5 13.5t12.5 5.5h36q7 0 11.5 -5.5t2.5 -13.5l-41 -297q1 0 8 4t20 9t30 9t38 4q32 0 59 -14t47 -38t31 -56.5t11 -69.5q0 -49 -15 -93t-41.5 -77t-63 -52.5t-78.5 -19.5q-26 0 -45.5 8t-32.5 18q-16 11 -26 27l-10 -27q-5 -16 -18 -16h-21q-7 0 -11.5 5.5
t-2.5 13.5zM117 119q7 -19 19 -33q10 -13 26.5 -23t39.5 -10q27 0 50 14.5t40 38t26.5 54t9.5 63.5q0 51 -25.5 85.5t-69.5 34.5q-19 0 -34.5 -3.5t-27.5 -8.5q-14 -5 -26 -12z" />
    <glyph glyph-name="c" unicode="c" horiz-adv-x="409" 
d="M29 170q0 50 17 94t46 76.5t68 51t83 18.5q41 0 73 -18.5t52 -53.5q4 -7 1.5 -14t-9.5 -12l-18 -13q-8 -6 -14.5 -4t-10.5 8q-12 19 -30.5 29.5t-44.5 10.5q-27 0 -52.5 -13t-45 -35t-31 -52.5t-11.5 -64.5q0 -26 7 -48.5t19.5 -39.5t30 -27t38.5 -10q18 0 33.5 6.5
t27.5 16t20 19.5t13 17q11 18 26 6l21 -18q11 -10 1 -26q-20 -32 -58 -58t-91 -26q-32 0 -61.5 13.5t-51.5 37.5t-35 57t-13 72z" />
    <glyph glyph-name="d" unicode="d" horiz-adv-x="451" 
d="M169 -10q-30 0 -55.5 14t-44 38t-29 56.5t-10.5 68.5q0 50 15.5 94.5t43.5 77.5t66 52t82 19q21 0 37 -4t27.5 -9t17.5 -9t7 -4l42 297q2 8 8 13.5t13 5.5h34q7 0 11.5 -5.5t3.5 -13.5l-93 -666q-2 -15 -18 -15h-22q-11 0 -13 15l-4 27q-1 0 -9.5 -8t-24 -18t-37 -18
t-48.5 -8zM186 53q24 0 42.5 10t32.5 23q16 14 28 33l28 200q-10 7 -22 12q-11 5 -26 8.5t-33 3.5q-28 0 -52.5 -13t-43 -36t-29 -53.5t-10.5 -66.5q0 -24 5 -46t15.5 -38.5t26.5 -26.5t38 -10z" />
    <glyph glyph-name="e" unicode="e" horiz-adv-x="403" 
d="M30 167q0 49 15.5 93t43.5 77.5t67 53t86 19.5q61 0 92 -30t31 -75q0 -66 -68 -100t-200 -22q-2 -25 3.5 -48.5t18 -41.5t30.5 -29t41 -11q26 0 49.5 10t40.5 21q8 5 14 4t11 -9l12 -17q4 -6 3.5 -12t-10.5 -14q-20 -14 -54.5 -30t-79.5 -16q-32 0 -58.5 14t-46 38.5
t-30.5 56.5t-11 68zM106 235q89 -8 139.5 11t50.5 55q0 20 -16 34t-47 14q-21 0 -41.5 -9t-37.5 -24.5t-30 -36.5t-18 -44z" />
    <glyph glyph-name="f" unicode="f" horiz-adv-x="303" 
d="M108 340h-62q-8 0 -12 5.5t-3 13.5l4 22q3 19 19 19h62l20 140q12 88 56.5 129t109.5 41q37 0 60 -14t34 -27q9 -11 0 -23l-19 -24q-11 -14 -23 -1q-8 8 -24.5 17.5t-36.5 9.5q-31 0 -55.5 -25t-32.5 -83l-20 -140h102q8 0 13 -5.5t3 -13.5l-4 -22q-1 -8 -6.5 -13.5
t-13.5 -5.5h-102l-86 -621q-2 -8 -7.5 -13.5t-12.5 -5.5h-35q-7 0 -11.5 5.5t-2.5 13.5z" />
    <glyph glyph-name="g" unicode="g" 
d="M29 151q0 61 17.5 109t45.5 81.5t64 51t72 17.5q26 0 44 -8.5t29 -18.5q12 -11 20 -26l13 34q4 9 14 9h24q6 0 10 -5.5t2 -13.5l-65 -441q-7 -53 -24.5 -91t-41.5 -62t-53 -35.5t-60 -11.5q-33 0 -57.5 10.5t-41 23.5t-24.5 24.5t-9 12.5q-6 8 -6 16q0 6 4 10l22 17
q2 2 5 4t7 2q5 0 10 -6q1 -2 8.5 -10.5t19.5 -18.5t28 -17.5t36 -7.5q13 0 29 4.5t31 19.5t27.5 44t20.5 79l18 98h-6q-14 -20 -40.5 -37.5t-66.5 -17.5q-26 0 -49 11t-40 32t-27 50.5t-10 67.5zM171 53q22 0 41 12t34 28.5t25 35t13 32.5l18 123q-5 17 -16 30
q-9 11 -25 20.5t-39 9.5q-22 0 -44.5 -12t-40.5 -36t-29 -59t-11 -80q0 -51 21.5 -77.5t52.5 -26.5z" />
    <glyph glyph-name="h" unicode="h" horiz-adv-x="463" 
d="M126 681q1 8 6.5 13.5t12.5 5.5h36q7 0 11 -5.5t3 -13.5l-45 -324q1 0 11 8.5t26.5 18t38.5 18t48 8.5q65 0 98 -46t20 -134l-30 -211q-1 -8 -7 -13.5t-13 -5.5h-36q-7 0 -11 5.5t-3 13.5l30 211q8 57 -9.5 85t-54.5 28q-24 0 -45 -9t-37 -19.5t-25.5 -19t-10.5 -8.5
l-38 -268q-1 -8 -6.5 -13.5t-13.5 -5.5h-35q-7 0 -11 5.5t-3 13.5z" />
    <glyph glyph-name="i" unicode="i" horiz-adv-x="208" 
d="M146 585q-17 0 -28.5 12t-11.5 29q0 23 16 38.5t37 15.5q18 0 29 -12t11 -30q0 -22 -16 -37.5t-37 -15.5zM83 381q1 8 6.5 13.5t13.5 5.5h36q7 0 11 -5.5t3 -13.5l-51 -362q-1 -8 -7 -13.5t-13 -5.5h-35q-7 0 -11.5 5.5t-2.5 13.5z" />
    <glyph glyph-name="j" unicode="j" horiz-adv-x="209" 
d="M147 585q-17 0 -28 12t-11 29q0 23 16 38.5t36 15.5q18 0 29 -12t11 -30q0 -22 -16 -37.5t-37 -15.5zM84 381q3 19 20 19h35q7 0 12 -5.5t3 -13.5l-74 -521q-12 -88 -52.5 -129t-107.5 -41q-37 0 -63 15t-37 27q-5 5 -5 11.5t4 11.5l20 26q10 14 23 1q7 -8 25.5 -18.5
t35.5 -10.5q31 0 55.5 24.5t32.5 82.5z" />
    <glyph glyph-name="k" unicode="k" horiz-adv-x="419" 
d="M126 681q1 8 6.5 13.5t12.5 5.5h36q7 0 11 -5.5t3 -13.5l-60 -433l171 140q5 5 11 8.5t12 3.5h56q11 0 11 -10t-6 -15l-194 -158l167 -192q5 -5 1.5 -15t-14.5 -10h-46q-6 0 -10.5 3t-6.5 5l-159 193l-26 -182q-1 -8 -6.5 -13.5t-12.5 -5.5h-36q-7 0 -11 5.5t-3 13.5z
" />
    <glyph glyph-name="l" unicode="l" horiz-adv-x="208" 
d="M126 681q1 8 7 13.5t13 5.5h35q7 0 11 -5.5t3 -13.5l-93 -662q-1 -8 -6.5 -13.5t-12.5 -5.5h-36q-7 0 -11 5.5t-3 13.5z" />
    <glyph glyph-name="m" unicode="m" horiz-adv-x="702" 
d="M83 381q1 8 5.5 13.5t14.5 5.5h20q11 0 13 -12l4 -31q1 0 10.5 8.5t26 18t39 18t49.5 8.5q40 0 65.5 -19.5t38.5 -47.5q2 1 15 12t33 23t45 22t52 10q36 0 60.5 -13.5t39 -37.5t18.5 -57t-1 -72l-30 -211q-1 -8 -6.5 -13.5t-13.5 -5.5h-35q-8 0 -12 5.5t-3 13.5l30 211
q15 113 -63 113q-22 0 -40.5 -7t-33 -16t-24.5 -18.5t-14 -14.5q0 -13 -1.5 -27t-3.5 -30l-29 -211q-1 -8 -7 -13.5t-13 -5.5h-35q-7 0 -11.5 5.5t-2.5 13.5l29 211q16 113 -66 113q-23 0 -42 -9t-33.5 -19.5t-22.5 -19.5t-9 -9l-37 -267q-1 -8 -7 -13.5t-13 -5.5h-35
q-7 0 -11.5 5.5t-2.5 13.5z" />
    <glyph glyph-name="n" unicode="n" horiz-adv-x="463" 
d="M83 381q1 8 6 13.5t14 5.5h20q11 0 13 -12l4 -31q1 0 11.5 8.5t28.5 18t42 18t52 8.5q36 0 61 -13.5t39.5 -37.5t18.5 -57t-1 -72l-30 -211q-1 -8 -7 -13.5t-13 -5.5h-36q-7 0 -11.5 5.5t-2.5 13.5l29 211q8 57 -8.5 85t-54.5 28q-24 0 -45.5 -9t-37.5 -19.5t-25.5 -19.5
t-10.5 -9l-37 -267q-1 -8 -7 -13.5t-14 -5.5h-34q-7 0 -11.5 5.5t-2.5 13.5z" />
    <glyph glyph-name="o" unicode="o" horiz-adv-x="445" 
d="M29 172q0 48 16.5 91t45 76t66.5 52t82 19q32 0 60 -14.5t49 -39.5t33.5 -57.5t12.5 -69.5q0 -48 -16.5 -91.5t-45 -76.5t-66.5 -52t-82 -19q-32 0 -60 14.5t-49 39.5t-33.5 58t-12.5 70zM191 53q26 0 50.5 13.5t43 37t29.5 54t11 65.5q0 25 -7 46.5t-19 38t-29 26
t-38 9.5q-26 0 -50.5 -13t-43.5 -35.5t-30 -52.5t-11 -64q0 -26 7 -48.5t19 -39.5t29.5 -27t38.5 -10z" />
    <glyph glyph-name="p" unicode="p" horiz-adv-x="451" 
d="M61 -281q-1 -8 -6.5 -13.5t-13.5 -5.5h-35q-7 0 -11.5 5.5t-3.5 13.5l93 662q1 8 5.5 13.5t14.5 5.5h22q10 0 13 -13l4 -19q1 0 8 6.5t20.5 14.5t34.5 14.5t49 6.5q31 0 57.5 -14.5t46 -39.5t30 -57t10.5 -68q0 -50 -15.5 -94t-43 -76.5t-65 -51.5t-82.5 -19q-21 0 -37 5
t-27.5 11.5t-17.5 11.5t-7 5zM114 88q9 -10 21 -18q11 -7 25.5 -12t32.5 -5q28 0 53 13t43.5 36t29 53.5t10.5 66.5q0 24 -6 46t-17 38.5t-28.5 26.5t-39.5 10q-21 0 -38.5 -8t-30.5 -17q-15 -11 -26 -24z" />
    <glyph glyph-name="q" unicode="q" horiz-adv-x="451" 
d="M30 168q0 49 15 93t42 77t64 52.5t82 19.5q24 0 42.5 -6.5t31 -14.5t19.5 -14.5t8 -6.5l9 18q7 14 19 14h20q17 0 14 -19l-93 -662q-1 -8 -7 -13.5t-13 -5.5h-35q-8 0 -12 5.5t-3 13.5l43 306q-1 0 -8.5 -5.5t-20.5 -12t-31 -12t-39 -5.5q-31 0 -58 14t-46.5 38t-31 56.5
t-11.5 69.5zM101 173q0 -50 23.5 -85t70.5 -35q18 0 34.5 5t28.5 11q14 7 27 17l30 211l-6 7t-16.5 16t-25.5 16t-35 7q-29 0 -53.5 -14.5t-41.5 -38t-26.5 -54t-9.5 -63.5z" />
    <glyph glyph-name="r" unicode="r" horiz-adv-x="313" 
d="M83 381q1 8 6 13.5t14 5.5h20q11 0 13 -14l4 -29q1 0 9 8.5t22.5 18t35.5 18t48 8.5q11 0 23.5 -1t22.5 -5t14.5 -10.5t-1.5 -16.5l-17 -33q-5 -10 -10.5 -11t-12.5 2q-5 2 -14.5 5t-24.5 3q-21 0 -38.5 -9t-30 -19.5t-19.5 -19.5t-8 -9l-37 -267q-2 -8 -8 -13.5
t-14 -5.5h-33q-7 0 -11.5 5.5t-2.5 13.5z" />
    <glyph glyph-name="s" unicode="s" horiz-adv-x="336" 
d="M19 35q-3 3 -4.5 9.5t2.5 11.5l17 23q11 14 24 3q11 -9 23 -16q11 -6 25.5 -10.5t31.5 -4.5q28 0 44.5 15t16.5 39q0 22 -16 37t-48 35q-16 9 -31.5 20t-27.5 25t-19.5 31.5t-7.5 38.5q0 19 6 39.5t21 38t41 29t65 11.5q36 0 61 -10.5t37 -20.5q5 -5 6.5 -12.5
t-3.5 -15.5l-14 -20q-6 -8 -13 -9t-13 3q-11 6 -22 10q-10 4 -22 7t-24 3q-32 0 -43.5 -15.5t-11.5 -29.5q0 -22 15.5 -34.5t38.5 -26.5q20 -11 38 -23t32 -26.5t22.5 -32t8.5 -40.5q0 -25 -9 -48t-27 -40.5t-45 -28t-63 -10.5q-42 0 -70.5 16t-41.5 29z" />
    <glyph glyph-name="t" unicode="t" horiz-adv-x="318" 
d="M98 340h-43q-8 0 -12.5 5.5t-2.5 13.5l4 22q3 19 19 19h44l15 111q2 8 7.5 13.5t12.5 5.5l36 2q7 0 11 -5.5t3 -13.5l-16 -113h100q17 0 15 -19l-3 -22q-1 -8 -6.5 -13.5t-13.5 -5.5h-100l-33 -234q-5 -30 1.5 -39t20.5 -9q17 0 36 9t29 14q11 6 15 2.5t6 -9.5l11 -25
q4 -9 1 -14.5t-11 -10.5q-5 -3 -16 -9t-26 -11.5t-31.5 -9.5t-32.5 -4q-48 0 -64.5 31.5t-9.5 78.5z" />
    <glyph glyph-name="u" unicode="u" horiz-adv-x="452" 
d="M165 -10q-38 0 -62.5 13.5t-38.5 37.5t-17.5 57t2.5 73l29 210q2 8 7.5 13.5t12.5 5.5h36q7 0 11.5 -5.5t3.5 -13.5l-30 -211q-8 -57 9 -87t54 -30q24 0 43.5 9.5t34 21t23 21l8.5 9.5l38 267q1 8 6.5 13.5t13.5 5.5h34q7 0 11.5 -5.5t3.5 -13.5l-51 -362
q-1 -8 -6.5 -13.5t-13.5 -5.5h-20q-7 0 -9 4.5t-4 12.5l-4 26q-1 -1 -10.5 -9.5t-25.5 -18t-38.5 -17.5t-50.5 -8z" />
    <glyph glyph-name="v" unicode="v" horiz-adv-x="377" 
d="M27 382q-6 18 15 18h33q13 0 16 -15l68 -263h1l150 267q5 11 21 11h30q11 0 14 -6.5t-2 -16.5l-208 -377q-5 -10 -16 -10h-5q-12 0 -14 10z" />
    <glyph glyph-name="w" unicode="w" horiz-adv-x="558" 
d="M46 384q-2 16 17 16h32q15 0 17 -14l30 -243h2l138 257q3 5 6.5 7.5t10.5 2.5h5q11 0 13 -10l59 -257h2l99 243q2 5 6.5 9.5t13.5 4.5h28q23 0 14 -20l-154 -380q-5 -10 -16 -10h-5q-12 0 -14 10l-66 287h-1l-150 -287q-2 -4 -6.5 -7t-10.5 -3h-4q-12 0 -14 10z" />
    <glyph glyph-name="x" unicode="x" horiz-adv-x="392" 
d="M10 0q-11 0 -13.5 8t5.5 18l143 178l-93 169q-5 10 1 18.5t17 8.5h31q10 0 14 -8l72 -141h1l113 141q7 8 16 8h39q11 0 15 -8.5t-4 -18.5l-145 -169l96 -179q5 -10 0.5 -17.5t-15.5 -7.5h-34q-5 0 -8 3t-5 6l-77 147h-1l-114 -148q-6 -8 -16 -8h-38z" />
    <glyph glyph-name="y" unicode="y" horiz-adv-x="426" 
d="M27 378q-3 10 1.5 16t15.5 6h35q11 0 14 -11l89 -310h1l170 310q5 11 17 11h39q10 0 13.5 -6.5t-1.5 -16.5l-370 -665q-2 -5 -7 -8.5t-10 -3.5h-42q-10 0 -13 5.5t3 16.5l157 279z" />
    <glyph glyph-name="z" unicode="z" horiz-adv-x="340" 
d="M15 0q-7 0 -11 5.5t-3 13.5l1 10l215 306v2h-147q-7 0 -10.5 5.5t-2.5 13.5l3 25q1 8 6.5 13.5t12.5 5.5h228q11 0 15 -8.5t-3 -18.5l-212 -309v-1h135q16 0 14 -19l-3 -25q-1 -8 -6.5 -13.5t-13.5 -5.5h-218z" />
    <glyph glyph-name="braceleft" unicode="{" horiz-adv-x="363" 
d="M73 90q3 17 -2 30.5t-13 23.5t-18 16t-18 8q-12 2 -11 17l4 31q1 8 6 11t10 4q7 1 18.5 7.5t23 16.5t20.5 23.5t11 30.5l23 161q10 71 37.5 117.5t64 73.5t77 38t75.5 11q7 0 12 -4t4 -13l-2 -19q-2 -16 -15 -18q-32 -5 -62.5 -19.5t-55.5 -38t-42 -56t-23 -72.5
l-19 -133q-5 -38 -16.5 -62t-25 -39t-27.5 -23t-23 -12v-3q9 -5 20.5 -12.5t20.5 -22.5t13 -39.5t-1 -61.5l-18 -133q-6 -41 2.5 -73t27 -55t45 -37.5t56.5 -19.5q13 -2 10 -17l-4 -20q-2 -8 -7.5 -12.5t-12.5 -4.5q-35 0 -72 13t-65.5 42t-43.5 74t-6 110z" />
    <glyph glyph-name="bar" unicode="|" horiz-adv-x="191" 
d="M140 741q1 8 7 13.5t13 5.5h7q16 0 13 -19l-143 -1023q-2 -8 -7.5 -13t-12.5 -5h-6q-7 0 -11.5 5t-3.5 13z" />
    <glyph glyph-name="braceright" unicode="}" horiz-adv-x="364" 
d="M164 62q5 37 16 61.5t24 39.5t26.5 22.5t23.5 12.5v3q-8 4 -19 12t-20 23t-13 39t1 62l18 133q6 40 -2.5 72.5t-27 56t-45 38t-56.5 19.5q-11 2 -9 18l3 19q2 9 7.5 13t12.5 4q35 0 72 -13.5t65.5 -42t43.5 -74.5t6 -110l-22 -161q-2 -17 3 -30.5t13 -23.5t18 -16t17 -8
q12 -3 11 -15l-4 -31q-2 -9 -6.5 -12.5t-9.5 -4.5q-8 -2 -19.5 -8t-23 -16t-20 -23.5t-10.5 -30.5l-23 -161q-10 -71 -37.5 -117.5t-64 -73.5t-77 -37.5t-75.5 -10.5q-7 0 -12 4.5t-4 12.5l2 20q1 15 15 17q32 5 62.5 19.5t55.5 37.5t42 55t23 73z" />
    <glyph glyph-name="asciitilde" unicode="~" horiz-adv-x="515" 
d="M74 228q-5 5 -10.5 8.5t-10.5 8.5q-4 5 -3 11.5t5 12.5q3 4 13.5 19t27.5 31.5t40 29t51 12.5q31 0 53.5 -15.5t39.5 -30.5q9 -8 26 -20.5t35 -12.5q15 0 28 7.5t23.5 18t18.5 22t14 18.5q14 17 25 4l20 -17q8 -10 -2 -24q-3 -4 -14 -19t-28 -31t-40 -29t-51 -13
q-30 0 -52.5 15t-38.5 29l-27 22.5t-35 12.5q-15 0 -27.5 -7.5t-23 -18t-19 -22t-13.5 -18.5q-6 -8 -13 -9t-12 5z" />
    <glyph glyph-name="uni00A0" unicode="&#xa0;" horiz-adv-x="222" 
 />
    <glyph glyph-name="exclamdown" unicode="&#xa1;" horiz-adv-x="226" 
d="M115 296q-21 0 -34.5 14.5t-13.5 35.5q0 26 19 45t45 19q20 0 33.5 -15t13.5 -35q0 -27 -19.5 -45.5t-43.5 -18.5zM65 112q2 6 7.5 11t11.5 5h14q6 0 10.5 -5t4.5 -11l-20 -279l-16 -114q-1 -8 -6.5 -13.5t-12.5 -5.5h-54q-7 0 -11.5 5.5t-3.5 13.5l16 112z" />
    <glyph glyph-name="cent" unicode="&#xa2;" horiz-adv-x="392" 
d="M104 9q-38 22 -63.5 64t-25.5 97q0 50 17.5 94t47.5 76.5t69.5 51t83.5 18.5q6 0 12 -0.5t12 -1.5l16 41q3 8 9.5 11.5t13.5 1.5l7 -2q7 -2 9.5 -8.5t-1.5 -14.5l-16 -41q36 -18 59 -58q4 -7 1.5 -14t-9.5 -12l-17 -12q-8 -6 -14.5 -4t-10.5 8q-12 20 -32 32l-107 -278
q5 -1 9 -1.5t9 -0.5q19 0 34.5 6.5t27 15.5t19 18.5t12.5 16.5q11 18 26 6l22 -19q11 -10 1 -26t-25 -31t-34 -27t-42.5 -19t-49.5 -7q-8 0 -16.5 1t-16.5 3l-37 -97q-2 -8 -9 -11.5t-14 -1.5l-6 2q-6 2 -8.5 8t-0.5 14zM234 348h-6q-27 0 -52.5 -13.5t-45 -37t-31 -54.5
t-11.5 -65q0 -33 11 -60t31 -43z" />
    <glyph glyph-name="sterling" unicode="&#xa3;" horiz-adv-x="469" 
d="M49 37q44 71 58.5 135.5t12.5 121.5h-40q-7 0 -10.5 5.5t-2.5 13.5l1 7q1 8 6 13.5t13 5.5h28q-1 14 -5 47t-4 69q0 61 15.5 108.5t44 80t69 49.5t89.5 17q29 0 52.5 -8t41.5 -19.5t30 -23.5l20 -20q12 -12 -2 -26l-24 -24q-9 -9 -15 -8.5t-11 7.5q-1 1 -9 10t-21.5 19.5
t-31.5 18.5t-39 8q-27 0 -52 -12t-44 -35.5t-30.5 -58t-11.5 -79.5q0 -40 5 -74.5t6 -45.5h141q8 0 11.5 -5.5t2.5 -13.5l-1 -8q-1 -8 -6 -13t-13 -5h-131q0 -20 -3 -48.5t-9 -60.5t-16 -64t-23 -57h217q15 0 13 -19l-3 -26q-1 -8 -6.5 -13.5t-12.5 -5.5h-288
q-7 0 -11.5 5.5t-3.5 13.5z" />
    <glyph glyph-name="currency" unicode="&#xa4;" horiz-adv-x="446" 
d="M68 195q-5 5 -3 13.5t7 13.5l44 41q-11 32 -6 69t25 69l-32 41q-4 5 -3 13.5t7 13.5l24 19q6 5 13 5t11 -5l32 -41q30 20 62.5 20.5t58.5 -19.5l44 42q5 5 11.5 4.5t11.5 -5.5l18 -20q5 -5 3.5 -13t-6.5 -13l-44 -41q12 -32 7 -70t-26 -70l32 -41q4 -5 3 -13t-7 -13
l-24 -20q-5 -5 -12 -5.5t-11 4.5l-33 42q-31 -19 -63 -19t-58 20l-43 -41q-5 -5 -12 -5t-12 5zM219 260q27 0 48 21t26 51q4 30 -11 51t-42 21t-48 -21t-25 -51q-5 -30 10 -51t42 -21z" />
    <glyph glyph-name="yen" unicode="&#xa5;" horiz-adv-x="567" 
d="M109 123q-7 0 -11 5.5t-3 13.5l1 7q2 8 7 13.5t12 5.5h115l10 75h-114q-7 0 -11 5.5t-3 13.5l1 7q2 8 7 13.5t12 5.5h115l7 49l-170 339q-5 9 -1 16.5t15 7.5h46q5 0 8.5 -3t5.5 -6l139 -285h2l222 285q2 3 6.5 6t9.5 3h48q11 0 14 -9.5t-4 -19.5l-264 -333l-7 -50h113
q8 0 12 -5.5t3 -13.5l-2 -8q-1 -8 -6 -13t-13 -5h-114l-10 -75h113q8 0 12 -5.5t3 -13.5l-1 -8q-2 -8 -7 -13t-13 -5h-114l-14 -104q-1 -8 -7 -13.5t-13 -5.5h-42q-8 0 -12 5.5t-3 13.5l14 104h-114z" />
    <glyph glyph-name="brokenbar" unicode="&#xa6;" horiz-adv-x="363" 
d="M197 393q-7 0 -11.5 5t-3.5 13l47 330q1 8 7 13.5t13 5.5h7q16 0 13 -19l-46 -330q-1 -8 -7 -13t-13 -5h-6zM132 49q1 8 6.5 13.5t12.5 5.5h8q16 0 13 -19l-46 -331q-2 -8 -7.5 -13t-12.5 -5h-6q-7 0 -11.5 5t-3.5 13z" />
    <glyph glyph-name="section" unicode="&#xa7;" horiz-adv-x="487" 
d="M10 -113q7 7 14 9t14 -6q2 -2 13.5 -14t30.5 -25t43.5 -23.5t53.5 -10.5q21 0 43.5 7t41 21t30.5 35t13 50q1 42 -31 76.5t-97 69.5q-27 15 -51.5 33t-42.5 39.5t-28.5 46.5t-10.5 54q0 36 13.5 64t30 46.5t30.5 28.5t16 10q-1 0 -9.5 8t-18 23.5t-17 38.5t-7.5 52
t10.5 62.5t35 62t64 47t98.5 18.5q35 0 64 -7.5t49.5 -17t32 -17.5t13.5 -9q3 -2 6.5 -10.5t-5.5 -22.5l-17 -21q-7 -9 -14 -11t-17 5q-2 1 -12.5 8.5t-26.5 15t-35.5 14t-39.5 6.5q-35 0 -59.5 -11t-40.5 -27.5t-23.5 -36.5t-7.5 -37q0 -37 26 -66.5t74 -52.5
q37 -20 68.5 -39t54.5 -40.5t35.5 -47t12.5 -56.5q0 -36 -14.5 -65.5t-32 -49.5t-33 -31t-16.5 -11q1 0 10 -9t19 -26t18 -42t8 -57q0 -43 -16.5 -77.5t-45.5 -59t-69 -38t-86 -13.5q-41 0 -73 11t-55 25t-36.5 27t-17.5 18q-5 5 -8.5 13t8.5 21zM120 259q0 -27 12 -45.5
t33 -35t50 -33.5t64 -39q19 10 35 26q13 14 24 34t11 49q0 40 -34.5 68.5t-98.5 61.5q-19 10 -32 19l-10 -5.5t-22 -18.5t-22 -33t-10 -48z" />
    <glyph glyph-name="dieresis" unicode="&#xa8;" horiz-adv-x="373" 
d="M309 585q-17 0 -28 12t-11 29q0 23 16 38.5t36 15.5q18 0 29 -12t11 -30q0 -22 -16 -37.5t-37 -15.5zM134 585q-17 0 -28 12t-11 29q0 23 16 38.5t37 15.5q17 0 28 -12t11 -30q0 -22 -16 -37.5t-37 -15.5z" />
    <glyph glyph-name="copyright" unicode="&#xa9;" horiz-adv-x="751" 
d="M58 303q0 83 30 157t81.5 129.5t120 88t144.5 32.5q58 0 109 -24.5t88.5 -67.5t59.5 -100t22 -121q0 -84 -30 -158t-81.5 -129.5t-120 -87.5t-144.5 -32q-58 0 -108.5 24.5t-88.5 67.5t-60 99.5t-22 121.5zM115 310q0 -53 17 -100.5t47 -83t72 -56t92 -20.5
q61 0 117.5 27t99.5 73.5t69 108t26 131.5q0 54 -17 101t-47 82t-72 55.5t-92 20.5q-60 0 -116.5 -26.5t-100 -72.5t-69.5 -108t-26 -132zM223 332q0 41 15.5 78t42 65t62 44.5t76.5 16.5q27 0 53 -9t46 -29q12 -14 -3 -29l-18 -18q-8 -8 -13.5 -6.5t-10.5 5.5
q-27 23 -61 23q-25 0 -47 -11.5t-38.5 -30.5t-26.5 -45t-10 -54q0 -44 24 -73.5t64 -29.5q33 0 64 22q17 11 26 -1l15 -19q5 -5 3 -13.5t-8 -14.5q-26 -24 -53.5 -33t-56.5 -9t-55 13t-46 36t-32 54t-12 68z" />
    <glyph glyph-name="ordfeminine" unicode="&#xaa;" horiz-adv-x="288" 
d="M132 404q-15 0 -28.5 7t-23.5 19.5t-14 30.5t-1 40q5 42 36.5 69t81.5 27q11 0 19 -1.5t15 -3.5q7 -3 14 -5q5 40 3.5 58.5t-28.5 18.5q-28 0 -48.5 -7t-31.5 -11q-5 -2 -8 2t-4 9l-2 18q-1 6 1.5 9.5t6.5 5.5t29 11t67 9q32 0 47 -11.5t19.5 -30t2 -42.5t-6.5 -48
l-21 -152q-2 -14 -14 -14h-21q-5 0 -6.5 2.5t-2.5 7.5l-3 16q-13 -11 -30 -22.5t-48 -11.5zM144 451q23 0 41.5 13t29.5 25l8 56q-6 4 -17 8.5t-31 4.5q-21 0 -41 -16t-23 -42q-3 -20 5 -34.5t28 -14.5z" />
    <glyph glyph-name="guillemotleft" unicode="&#xab;" horiz-adv-x="391" 
d="M182 194q-3 6 -1.5 12.5t4.5 11.5l114 148q3 4 8 8t12 4h22q11 0 13.5 -9.5t-4.5 -21.5l-86 -144l39 -142q3 -12 -1.5 -21t-16.5 -9h-18q-9 0 -13 8zM30 194q-3 6 -1.5 12.5t4.5 11.5l114 148q3 4 8 8t12 4h22q11 0 13.5 -9.5t-4.5 -21.5l-86 -144l39 -142
q3 -12 -1.5 -21t-16.5 -9h-18q-9 0 -13 8z" />
    <glyph glyph-name="logicalnot" unicode="&#xac;" horiz-adv-x="477" 
d="M55 314q-7 0 -11 5.5t-3 13.5l4 28q1 8 7 13.5t13 5.5h343q8 0 12 -6t3 -13l-29 -204q-1 -8 -7 -13t-13 -5h-33q-7 0 -11.5 5t-2.5 13l22 157h-294z" />
    <glyph glyph-name="uni00AD" unicode="&#xad;" horiz-adv-x="313" 
d="M92 220q-8 0 -12.5 5t-2.5 13l3 19q3 19 20 19h191q17 0 14 -19l-3 -19q-2 -8 -7 -13t-13 -5h-190z" />
    <glyph glyph-name="registered" unicode="&#xae;" horiz-adv-x="751" 
d="M58 303q0 83 30 157t81.5 129.5t120 88t144.5 32.5q58 0 109 -24.5t88.5 -67.5t59.5 -100t22 -121q0 -84 -30 -158t-81.5 -129.5t-120 -87.5t-144.5 -32q-58 0 -108.5 24.5t-88.5 67.5t-60 99.5t-22 121.5zM115 310q0 -53 17 -100.5t47 -83t72 -56t92 -20.5
q61 0 117.5 27t99.5 73.5t69 108t26 131.5q0 54 -17 101t-47 82t-72 55.5t-92 20.5q-60 0 -116.5 -26.5t-100 -72.5t-69.5 -108t-26 -132zM296 515q1 8 6.5 13.5t13.5 5.5h129q38 0 67 -24.5t29 -78.5q0 -30 -9.5 -50.5t-23 -34.5t-29 -21t-27.5 -10q9 -29 18.5 -60
t18.5 -60q3 -9 -1 -18t-18 -9h-27q-8 0 -12 4.5t-6 9.5l-32 125h-66l-17 -120q-1 -8 -6 -13.5t-13 -5.5h-27q-8 0 -12 5.5t-2 13.5zM420 365q26 0 43 19.5t17 46.5q0 21 -11.5 34.5t-32.5 13.5h-86l-16 -114h86z" />
    <glyph glyph-name="macron" unicode="&#xaf;" horiz-adv-x="373" 
d="M54 583q-8 0 -12 5t-3 13l3 21q3 19 20 19h231q7 0 11.5 -5.5t2.5 -13.5l-3 -21q-1 -8 -6.5 -13t-13.5 -5h-230z" />
    <glyph glyph-name="degree" unicode="&#xb0;" horiz-adv-x="309" 
d="M176 440q-21 0 -39.5 9t-33 25t-23 37.5t-8.5 45.5q0 31 11 59t30 49t45 33t56 12q22 0 41 -9t33 -25t22 -37.5t8 -45.5q0 -32 -11.5 -60t-31 -48.5t-45.5 -32.5t-54 -12zM184 497q15 0 28.5 7t24 19t17 28t6.5 34q0 27 -15.5 46.5t-38.5 19.5q-15 0 -29.5 -7t-25 -19
t-17 -28t-6.5 -34q0 -28 15.5 -47t40.5 -19z" />
    <glyph glyph-name="plusminus" unicode="&#xb1;" horiz-adv-x="555" 
d="M258 249q-7 0 -11.5 5t-3.5 13l16 117h-140q-7 0 -11.5 5.5t-2.5 13.5l4 28q1 8 6.5 13.5t12.5 5.5h140l21 148q2 8 7.5 13t12.5 5h30q7 0 11.5 -5t3.5 -13l-21 -148h140q7 0 11 -5.5t3 -13.5l-4 -28q-2 -8 -7 -13.5t-12 -5.5h-140l-17 -117q-1 -8 -6.5 -13t-12.5 -5h-30
zM82 61q-7 0 -11.5 5.5t-2.5 13.5l4 28q1 8 6.5 13.5t12.5 5.5h345q7 0 11 -5.5t3 -13.5l-4 -28q-2 -8 -7 -13.5t-12 -5.5h-345z" />
    <glyph glyph-name="uni00B2" unicode="&#xb2;" horiz-adv-x="283" 
d="M89 504q-9 0 -8 9l2 16l129 131q17 19 27.5 32.5t10.5 29.5q0 14 -10 27.5t-33 13.5q-14 0 -29.5 -9.5t-27.5 -20.5q-5 -4 -7.5 -3t-4.5 3l-14 18q-5 8 1 14l8.5 8.5t19.5 15.5t28 14.5t36 6.5q41 0 64 -22.5t23 -54.5q0 -29 -15.5 -52.5t-41.5 -49.5l-80 -83h103
q8 0 6 -10l-3 -25q-1 -3 -2.5 -6t-6.5 -3h-175z" />
    <glyph glyph-name="uni00B3" unicode="&#xb3;" horiz-adv-x="274" 
d="M165 494q-21 0 -35.5 4.5t-25 11.5t-16.5 13.5t-9 11.5q-6 6 3 11l18 20q8 5 12 -1q1 -1 5.5 -5t12 -8.5t17.5 -8.5t21 -4q23 0 41 14t18 37q0 17 -13.5 29.5t-42.5 12.5h-28q-10 0 -8 9l3 25q1 9 11 9h28q31 0 46.5 15t15.5 35q0 17 -12 28t-29 11q-14 0 -28.5 -9.5
t-22.5 -17.5q-7 -5 -12 0l-16 21q-2 2 -2 6t4 6q12 11 26 20q12 8 28 14t35 6q36 0 60 -19.5t24 -53.5q0 -15 -5.5 -28t-14.5 -23.5t-19 -17.5t-19 -11v-2q14 -6 29.5 -23.5t15.5 -43.5q0 -20 -9 -37t-24.5 -29.5t-36.5 -20t-46 -7.5z" />
    <glyph glyph-name="acute" unicode="&#xb4;" horiz-adv-x="272" 
d="M113 557q-17 -8 -22 8l-7 18q-4 12 8 19l148 84q5 3 13 3t12 -11l13 -33q4 -9 0.5 -14t-8.5 -7z" />
    <glyph glyph-name="mu" unicode="&#xb5;" horiz-adv-x="467" 
d="M61 -281q-1 -8 -7 -13.5t-13 -5.5h-35q-7 0 -11 5.5t-3 13.5l90 662q2 8 7.5 13.5t12.5 5.5h36q7 0 11.5 -5.5t3.5 -13.5l-30 -211q-8 -57 9 -85t54 -28q24 0 43.5 9t34 19.5t23 19.5l8.5 9l38 267q1 8 6.5 13.5t13.5 5.5h34q7 0 11.5 -5.5t3.5 -13.5l-51 -362
q-1 -8 -6.5 -13.5t-13.5 -5.5h-20q-7 0 -9 4.5t-4 12.5l-4 26q-1 -1 -10.5 -9.5t-25.5 -18t-38.5 -17.5t-50.5 -8q-41 0 -69 17z" />
    <glyph glyph-name="paragraph" unicode="&#xb6;" horiz-adv-x="636" 
d="M252 282h-39q-35 0 -64 14t-50.5 38.5t-33.5 58t-12 71.5q0 48 17 91t45.5 75.5t65.5 51.5t78 19l400 -1q7 0 11 -5.5t3 -13.5l-3 -20q-2 -8 -7.5 -13.5t-12.5 -5.5h-94l-130 -923q-1 -8 -6.5 -13.5t-13.5 -5.5h-24q-7 0 -11.5 5.5t-2.5 13.5l129 923h-137l-130 -923
q-1 -8 -7 -13.5t-13 -5.5h-23q-7 0 -11 5.5t-3 13.5z" />
    <glyph glyph-name="periodcentered" unicode="&#xb7;" horiz-adv-x="227" 
d="M110 204q-21 0 -35 15t-14 35q0 27 20 45.5t45 18.5q21 0 35 -14.5t14 -35.5q0 -26 -19.5 -45t-45.5 -19z" />
    <glyph glyph-name="cedilla" unicode="&#xb8;" horiz-adv-x="223" 
d="M126 0l-7 -54q35 -7 57.5 -31t22.5 -65q0 -21 -7 -41t-20.5 -35.5t-33 -24.5t-44.5 -9q-23 0 -41 10.5t-27 25.5q-5 7 -3.5 13.5t6.5 11.5l12 11q5 5 10.5 5t9.5 -5q15 -18 36 -18q20 0 33 16t13 39q0 15 -6 24.5t-15.5 15.5t-21 9.5t-22.5 5.5t-12.5 9t-0.5 11l11 76h50
z" />
    <glyph glyph-name="uni00B9" unicode="&#xb9;" horiz-adv-x="185" 
d="M123 504q-10 0 -8 9l29 210l-39 -11q-8 -2 -8 4l-2 20q0 4 0.5 6t4.5 5l71 53h29q9 0 7 -9l-40 -278q-2 -9 -9 -9h-35z" />
    <glyph glyph-name="ordmasculine" unicode="&#xba;" horiz-adv-x="303" 
d="M168 394q-44 0 -69 32.5t-25 89.5q0 88 35 140.5t101 52.5q44 0 69 -32.5t25 -89.5q0 -88 -35 -140.5t-101 -52.5zM174 442q35 0 55.5 38.5t20.5 102.5q0 36 -11.5 57t-34.5 21q-35 0 -55.5 -39.5t-20.5 -102.5q0 -36 11.5 -56.5t34.5 -20.5z" />
    <glyph glyph-name="guillemotright" unicode="&#xbb;" horiz-adv-x="391" 
d="M259 206l-39 142q-3 12 1.5 21t16.5 9h18q9 0 13 -8l72 -155q3 -6 1.5 -12.5t-4.5 -11.5l-114 -148q-3 -4 -8 -8t-12 -4h-22q-11 0 -13.5 9.5t4.5 21.5zM29 31q-11 0 -13.5 9.5t4.5 21.5l86 144l-39 142q-3 12 1.5 21t16.5 9h18q9 0 13 -8l72 -155q3 -6 1.5 -12.5
t-4.5 -11.5l-114 -148q-3 -4 -8 -8t-12 -4h-22z" />
    <glyph glyph-name="onequarter" unicode="&#xbc;" horiz-adv-x="598" 
d="M451 690q6 10 16 10h24q10 0 13.5 -8.5t-2.5 -18.5l-404 -663q-2 -3 -6 -6.5t-10 -3.5h-22q-10 0 -13.5 8.5t2.5 18.5zM118 404q-10 0 -8 9l29 210l-39 -11q-8 -2 -8 4l-2 20q0 4 0.5 6t4.5 5l71 53h29q9 0 7 -9l-40 -278q-2 -9 -9 -9h-35zM284 97l181 196q3 3 7 3h22
q3 0 6 -2.5t2 -6.5l-26 -185h36q7 0 7 -8l-3 -26q-2 -8 -10 -8h-36l-7 -51q-2 -9 -11 -9h-32q-3 0 -6 2.5t-2 6.5l7 50h-133q-8 0 -6 9zM427 103l16 111l-97 -111h81z" />
    <glyph glyph-name="onehalf" unicode="&#xbd;" horiz-adv-x="585" 
d="M451 690q6 10 16 10h24q10 0 13.5 -8.5t-2.5 -18.5l-404 -663q-2 -3 -6 -6.5t-10 -3.5h-22q-10 0 -13.5 8.5t2.5 18.5zM118 404q-10 0 -8 9l29 210l-39 -11q-8 -2 -8 4l-2 20q0 4 0.5 6t4.5 5l71 53h29q9 0 7 -9l-40 -278q-2 -9 -9 -9h-35zM292 25l129 131
q17 19 27.5 32.5t10.5 29.5q0 14 -10 27.5t-33 13.5q-14 0 -29.5 -9.5t-27.5 -20.5q-5 -4 -7.5 -3t-4.5 3l-14 18q-5 8 1 14l8.5 8.5t19.5 15.5t28 14.5t36 6.5q41 0 64 -22.5t23 -54.5q0 -29 -15.5 -52.5t-41.5 -49.5l-80 -83h103q8 0 6 -10l-3 -25q-1 -3 -2.5 -6t-6.5 -3
h-175q-9 0 -8 9z" />
    <glyph glyph-name="threequarters" unicode="&#xbe;" horiz-adv-x="664" 
d="M148 394q-21 0 -35.5 4.5t-25 11.5t-16.5 13.5t-9 11.5q-6 6 3 11l18 20q8 5 12 -1q1 -1 5.5 -5t12 -8.5t17.5 -8.5t21 -4q23 0 41 14t18 37q0 17 -13.5 29.5t-42.5 12.5h-28q-10 0 -8 9l3 25q1 9 11 9h28q31 0 46.5 15t15.5 35q0 17 -12 28t-29 11q-14 0 -28.5 -9.5
t-22.5 -17.5q-7 -5 -12 0l-16 21q-2 2 -2 6t4 6q12 11 26 20q12 8 28 14t35 6q36 0 60 -19.5t24 -53.5q0 -15 -5.5 -28t-14.5 -23.5t-19 -17.5t-19 -11v-2q14 -6 29.5 -23.5t15.5 -43.5q0 -20 -9 -37t-24.5 -29.5t-36.5 -20t-46 -7.5zM516 690q6 10 16 10h24q10 0 13.5 -8.5
t-2.5 -18.5l-404 -663q-2 -3 -6 -6.5t-10 -3.5h-22q-10 0 -13.5 8.5t2.5 18.5zM349 97l181 196q3 3 7 3h22q3 0 6 -2.5t2 -6.5l-26 -185h36q7 0 7 -8l-3 -26q-2 -8 -10 -8h-36l-7 -51q-2 -9 -11 -9h-32q-3 0 -6 2.5t-2 6.5l7 50h-133q-8 0 -6 9zM492 103l16 111l-97 -111h81
z" />
    <glyph glyph-name="questiondown" unicode="&#xbf;" horiz-adv-x="242" 
d="M124 296q-21 0 -34 14.5t-13 35.5q0 26 19 45t44 19q21 0 34.5 -15t13.5 -35q0 -27 -19.5 -45.5t-44.5 -18.5zM-3 -15q26 19 45.5 37t23.5 45l6 41q2 11 8 15.5t13 4.5h33q16 0 14 -19l-6 -42q-4 -26 -13.5 -44.5t-22.5 -33t-28 -26t-29 -23.5q-14 -11 -28 -21.5
t-25.5 -23.5t-18.5 -29t-7 -39q0 -30 21.5 -52.5t59.5 -22.5q26 0 46 8t35 19t26 23t19 20q7 7 12 6.5t11 -5.5l18 -15q8 -8 6 -16t-6 -14q-3 -4 -14 -18.5t-32.5 -30t-54 -27.5t-78.5 -12q-30 0 -56 9.5t-44.5 27t-29 41.5t-10.5 54q0 31 9.5 55.5t25 43.5t34.5 34.5
t37 29.5z" />
    <glyph glyph-name="Agrave" unicode="&#xc0;" horiz-adv-x="605" 
d="M-13 0q-11 0 -14 8t2 18l369 673q5 11 17 11h9q10 0 14 -11l178 -673q2 -10 -3.5 -18t-15.5 -8h-42q-7 0 -10.5 3.5t-4.5 7.5l-40 165h-312l-85 -165q-2 -4 -6.5 -7.5t-12.5 -3.5h-43zM427 238l-79 328h-6l-171 -328h256zM305 847q-9 5 -10 11.5t3 12.5l21 34
q5 7 12.5 6.5t11.5 -3.5l125 -84q4 -2 5.5 -7.5t-2.5 -11.5l-12 -20q-6 -10 -22 -2z" />
    <glyph glyph-name="Aacute" unicode="&#xc1;" horiz-adv-x="605" 
d="M-13 0q-11 0 -14 8t2 18l369 673q5 11 17 11h9q10 0 14 -11l178 -673q2 -10 -3.5 -18t-15.5 -8h-42q-7 0 -10.5 3.5t-4.5 7.5l-40 165h-312l-85 -165q-2 -4 -6.5 -7.5t-12.5 -3.5h-43zM427 238l-79 328h-6l-171 -328h256zM315 779q-17 -8 -22 8l-7 18q-4 12 8 19l148 84
q5 3 13 3t12 -11l13 -33q4 -9 0.5 -14t-8.5 -7z" />
    <glyph glyph-name="Acircumflex" unicode="&#xc2;" horiz-adv-x="605" 
d="M-13 0q-11 0 -14 8t2 18l369 673q5 11 17 11h9q10 0 14 -11l178 -673q2 -10 -3.5 -18t-15.5 -8h-42q-7 0 -10.5 3.5t-4.5 7.5l-40 165h-312l-85 -165q-2 -4 -6.5 -7.5t-12.5 -3.5h-43zM427 238l-79 328h-6l-171 -328h256zM250 792q-5 9 -2.5 15t7.5 9l119 94q4 3 8 5
t10 2h3q5 0 10.5 -4t8.5 -8l84 -91q8 -9 -2 -19l-14 -15q-5 -5 -9.5 -7.5t-11.5 3.5l-78 66l-102 -71q-15 -11 -22 3z" />
    <glyph glyph-name="Atilde" unicode="&#xc3;" horiz-adv-x="605" 
d="M-13 0q-11 0 -14 8t2 18l369 673q5 11 17 11h9q10 0 14 -11l178 -673q2 -10 -3.5 -18t-15.5 -8h-42q-7 0 -10.5 3.5t-4.5 7.5l-40 165h-312l-85 -165q-2 -4 -6.5 -7.5t-12.5 -3.5h-43zM427 238l-79 328h-6l-171 -328h256zM252 803q-7 5 -6.5 11.5t2.5 11.5q3 7 10 21
t19 28t28.5 24.5t37.5 10.5q20 0 32.5 -11.5t21.5 -25t17 -24.5t20 -11q18 0 27.5 17t14.5 30q3 8 9 12.5t16 -1.5l14 -8q6 -4 7.5 -10.5t-0.5 -12.5q-3 -10 -10.5 -24.5t-19 -28t-27.5 -23t-36 -9.5q-18 0 -30.5 11.5t-22.5 25t-19 25t-19 11.5t-17.5 -5.5t-13 -13
t-9 -16.5t-6.5 -15q-3 -7 -10 -10t-14 2z" />
    <glyph glyph-name="Adieresis" unicode="&#xc4;" horiz-adv-x="605" 
d="M-13 0q-11 0 -14 8t2 18l369 673q5 11 17 11h9q10 0 14 -11l178 -673q2 -10 -3.5 -18t-15.5 -8h-42q-7 0 -10.5 3.5t-4.5 7.5l-40 165h-312l-85 -165q-2 -4 -6.5 -7.5t-12.5 -3.5h-43zM427 238l-79 328h-6l-171 -328h256zM463 792q-17 0 -28 12t-11 29q0 23 16 38.5
t36 15.5q18 0 29 -12t11 -30q0 -22 -16 -37.5t-37 -15.5zM288 792q-17 0 -28 12t-11 29q0 23 16 38.5t37 15.5q17 0 28 -12t11 -30q0 -22 -16 -37.5t-37 -15.5z" />
    <glyph glyph-name="Aring" unicode="&#xc5;" horiz-adv-x="605" 
d="M-13 0q-11 0 -14 8t2 18l369 673q5 11 17 11h9q10 0 14 -11l178 -673q2 -10 -3.5 -18t-15.5 -8h-42q-7 0 -10.5 3.5t-4.5 7.5l-40 165h-312l-85 -165q-2 -4 -6.5 -7.5t-12.5 -3.5h-43zM427 238l-79 328h-6l-171 -328h256zM372 758q-38 0 -61.5 27.5t-23.5 66.5
q0 26 9 48.5t25 39.5t36.5 26.5t44.5 9.5q37 0 61 -27.5t24 -66.5q0 -26 -9.5 -48.5t-25 -39.5t-36.5 -26.5t-44 -9.5zM378 806q23 0 41 21t18 48q0 20 -10.5 35.5t-31.5 15.5q-23 0 -41.5 -19.5t-18.5 -46.5q0 -21 11 -37.5t32 -16.5z" />
    <glyph glyph-name="AE" unicode="&#xc6;" horiz-adv-x="822" 
d="M-27 0q-11 0 -13 8t5 18l452 643q11 15 19 23t25 8h345q7 0 11 -5.5t3 -13.5l-4 -29q-1 -8 -6.5 -13.5t-13.5 -5.5h-301l-35 -244h258q7 0 11 -5.5t3 -13.5l-4 -29q-2 -8 -7.5 -13.5t-12.5 -5.5h-257l-36 -255h302q7 0 11 -5.5t3 -13.5l-4 -29q-1 -8 -6.5 -13.5
t-13.5 -5.5h-356q-8 0 -12 5.5t-3 13.5l22 157h-205l-113 -165q-3 -4 -7 -7.5t-12 -3.5h-48zM367 238l46 319l-215 -319h169z" />
    <glyph glyph-name="Ccedilla" unicode="&#xc7;" horiz-adv-x="652" 
d="M293 -5q-48 9 -90.5 36.5t-73.5 68t-49 92t-18 109.5q0 84 28.5 158.5t79.5 130t120.5 88t150.5 32.5q69 0 116.5 -24.5t88.5 -68.5q5 -5 4.5 -14t-7.5 -14l-29 -23q-8 -6 -13 -4.5t-13 9.5q-25 29 -68.5 48t-88.5 19q-57 0 -109 -26.5t-91.5 -71.5t-63 -104.5
t-23.5 -125.5q0 -50 15 -94.5t42 -78.5t65 -54t84 -20q56 0 96 24t78 54q8 6 13.5 6t8.5 -3l31 -30q6 -6 3.5 -14t-7.5 -13q-53 -51 -112 -73.5t-119 -23.5l-5 -44q35 -7 57.5 -31t22.5 -65q0 -21 -7 -41t-20.5 -35.5t-33 -24.5t-44.5 -9q-23 0 -41 10.5t-27 25.5
q-5 7 -3.5 13.5t6.5 11.5l12 11q11 11 20 0q15 -18 36 -18q20 0 33 16t13 39q0 15 -6 24.5t-15.5 15.5t-21 9.5t-22.5 5.5t-12.5 9t-0.5 11z" />
    <glyph glyph-name="Egrave" unicode="&#xc8;" horiz-adv-x="548" 
d="M156 681q1 8 6.5 13.5t12.5 5.5h357q8 0 12 -5.5t2 -13.5l-4 -29q-1 -8 -6.5 -13.5t-13.5 -5.5h-296l-35 -244h253q7 0 11.5 -5.5t2.5 -13.5l-4 -29q-1 -8 -6.5 -13.5t-12.5 -5.5h-253l-36 -255h297q8 0 12 -5.5t2 -13.5l-4 -29q-1 -8 -6.5 -13.5t-13.5 -5.5h-356
q-8 0 -12 5.5t-2 13.5zM294 847q-9 5 -10 11.5t3 12.5l21 34q5 7 12.5 6.5t11.5 -3.5l125 -84q4 -2 5.5 -7.5t-2.5 -11.5l-12 -20q-6 -10 -22 -2z" />
    <glyph glyph-name="Eacute" unicode="&#xc9;" horiz-adv-x="548" 
d="M156 681q1 8 6.5 13.5t12.5 5.5h357q8 0 12 -5.5t2 -13.5l-4 -29q-1 -8 -6.5 -13.5t-13.5 -5.5h-296l-35 -244h253q7 0 11.5 -5.5t2.5 -13.5l-4 -29q-1 -8 -6.5 -13.5t-12.5 -5.5h-253l-36 -255h297q8 0 12 -5.5t2 -13.5l-4 -29q-1 -8 -6.5 -13.5t-13.5 -5.5h-356
q-8 0 -12 5.5t-2 13.5zM305 779q-17 -8 -22 8l-7 18q-4 12 8 19l148 84q5 3 13 3t12 -11l13 -33q4 -9 0.5 -14t-8.5 -7z" />
    <glyph glyph-name="Ecircumflex" unicode="&#xca;" horiz-adv-x="548" 
d="M156 681q1 8 6.5 13.5t12.5 5.5h357q8 0 12 -5.5t2 -13.5l-4 -29q-1 -8 -6.5 -13.5t-13.5 -5.5h-296l-35 -244h253q7 0 11.5 -5.5t2.5 -13.5l-4 -29q-1 -8 -6.5 -13.5t-12.5 -5.5h-253l-36 -255h297q8 0 12 -5.5t2 -13.5l-4 -29q-1 -8 -6.5 -13.5t-13.5 -5.5h-356
q-8 0 -12 5.5t-2 13.5zM239 792q-5 9 -2.5 15t7.5 9l119 94q4 3 8 5t10 2h3q5 0 10.5 -4t8.5 -8l84 -91q8 -9 -2 -19l-14 -15q-5 -5 -9.5 -7.5t-11.5 3.5l-78 66l-102 -71q-15 -11 -22 3z" />
    <glyph glyph-name="Edieresis" unicode="&#xcb;" horiz-adv-x="548" 
d="M156 681q1 8 6.5 13.5t12.5 5.5h357q8 0 12 -5.5t2 -13.5l-4 -29q-1 -8 -6.5 -13.5t-13.5 -5.5h-296l-35 -244h253q7 0 11.5 -5.5t2.5 -13.5l-4 -29q-1 -8 -6.5 -13.5t-12.5 -5.5h-253l-36 -255h297q8 0 12 -5.5t2 -13.5l-4 -29q-1 -8 -6.5 -13.5t-13.5 -5.5h-356
q-8 0 -12 5.5t-2 13.5zM447 792q-17 0 -28 12t-11 29q0 23 16 38.5t36 15.5q18 0 29 -12t11 -30q0 -22 -16 -37.5t-37 -15.5zM272 792q-17 0 -28 12t-11 29q0 23 16 38.5t37 15.5q17 0 28 -12t11 -30q0 -22 -16 -37.5t-37 -15.5z" />
    <glyph glyph-name="Igrave" unicode="&#xcc;" horiz-adv-x="276" 
d="M156 681q1 8 6.5 13.5t12.5 5.5h44q7 0 11.5 -5.5t2.5 -13.5l-93 -662q-1 -8 -6.5 -13.5t-12.5 -5.5h-44q-7 0 -11.5 5.5t-2.5 13.5zM137 847q-9 5 -10 11.5t3 12.5l21 34q5 7 12.5 6.5t11.5 -3.5l125 -84q4 -2 5.5 -7.5t-2.5 -11.5l-12 -20q-6 -10 -22 -2z" />
    <glyph glyph-name="Iacute" unicode="&#xcd;" horiz-adv-x="276" 
d="M156 681q1 8 6.5 13.5t12.5 5.5h44q7 0 11.5 -5.5t2.5 -13.5l-93 -662q-1 -8 -6.5 -13.5t-12.5 -5.5h-44q-7 0 -11.5 5.5t-2.5 13.5zM147 779q-17 -8 -22 8l-7 18q-4 12 8 19l148 84q5 3 13 3t12 -11l13 -33q4 -9 0.5 -14t-8.5 -7z" />
    <glyph glyph-name="Icircumflex" unicode="&#xce;" horiz-adv-x="276" 
d="M156 681q1 8 6.5 13.5t12.5 5.5h44q7 0 11.5 -5.5t2.5 -13.5l-93 -662q-1 -8 -6.5 -13.5t-12.5 -5.5h-44q-7 0 -11.5 5.5t-2.5 13.5zM82 792q-5 9 -2.5 15t7.5 9l119 94q4 3 8 5t10 2h3q5 0 10.5 -4t8.5 -8l84 -91q8 -9 -2 -19l-14 -15q-5 -5 -9.5 -7.5t-11.5 3.5l-78 66
l-102 -71q-15 -11 -22 3z" />
    <glyph glyph-name="Idieresis" unicode="&#xcf;" horiz-adv-x="276" 
d="M156 681q1 8 6.5 13.5t12.5 5.5h44q7 0 11.5 -5.5t2.5 -13.5l-93 -662q-1 -8 -6.5 -13.5t-12.5 -5.5h-44q-7 0 -11.5 5.5t-2.5 13.5zM296 792q-17 0 -28 12t-11 29q0 23 16 38.5t36 15.5q18 0 29 -12t11 -30q0 -22 -16 -37.5t-37 -15.5zM121 792q-17 0 -28 12t-11 29
q0 23 16 38.5t37 15.5q17 0 28 -12t11 -30q0 -22 -16 -37.5t-37 -15.5z" />
    <glyph glyph-name="Eth" unicode="&#xd0;" horiz-adv-x="694" 
d="M110 324h-27q-7 0 -10.5 5.5t-2.5 13.5l1 7q1 8 6.5 13.5t12.5 5.5h26l44 312q1 8 6.5 13.5t12.5 5.5h203q59 0 108.5 -24.5t85.5 -66.5t56.5 -97t20.5 -116q0 -81 -29 -153t-79 -126t-117.5 -85.5t-143.5 -31.5h-204q-7 0 -11 5.5t-2 13.5zM279 69q60 0 112.5 24.5
t92 67.5t62.5 102.5t23 130.5q0 52 -15 95.5t-42.5 75t-66 49.5t-86.5 18h-130l-37 -263h183q8 0 12 -5.5t2 -13.5l-1 -8q-1 -8 -6 -13t-13 -5h-184l-35 -255h129z" />
    <glyph glyph-name="Ntilde" unicode="&#xd1;" horiz-adv-x="716" 
d="M157 692q1 8 7.5 13t14.5 5h25l322 -561h1l75 532q1 8 7.5 13.5t15.5 5.5h32q8 0 13 -5.5t4 -13.5l-95 -673q-1 -8 -7.5 -13t-14.5 -5h-25l-323 571h-2l-73 -542q-1 -8 -8 -13.5t-15 -5.5h-32q-8 0 -12.5 5.5t-3.5 13.5zM300 803q-7 5 -6.5 11.5t2.5 11.5q3 7 10 21
t19 28t28.5 24.5t37.5 10.5q20 0 32.5 -11.5t21.5 -25t17 -24.5t20 -11q18 0 27.5 17t14.5 30q3 8 9 12.5t16 -1.5l14 -8q6 -4 7.5 -10.5t-0.5 -12.5q-3 -10 -10.5 -24.5t-19 -28t-27.5 -23t-36 -9.5q-18 0 -30.5 11.5t-22.5 25t-19 25t-19 11.5t-17.5 -5.5t-13 -13
t-9 -16.5t-6.5 -15q-3 -7 -10 -10t-14 2z" />
    <glyph glyph-name="Ograve" unicode="&#xd2;" horiz-adv-x="758" 
d="M340 -10q-66 0 -121.5 28t-93.5 76.5t-55.5 114t-7.5 140.5q11 75 44.5 141t83 114.5t113 77t134.5 28.5q66 0 122 -28.5t94 -77t55.5 -114.5t6.5 -141t-44 -140.5t-82.5 -114t-113 -76.5t-135.5 -28zM348 60q53 0 102.5 23t90 62t68 91.5t35.5 112.5q9 60 -4 112.5
t-42 92.5t-72.5 63t-96.5 23t-102.5 -23t-89.5 -63t-67.5 -92.5t-36.5 -112.5q-8 -60 4.5 -112.5t42 -91.5t72.5 -62t96 -23zM384 847q-9 5 -10 11.5t3 12.5l21 34q5 7 12.5 6.5t11.5 -3.5l125 -84q4 -2 5.5 -7.5t-2.5 -11.5l-12 -20q-6 -10 -22 -2z" />
    <glyph glyph-name="Oacute" unicode="&#xd3;" horiz-adv-x="758" 
d="M340 -10q-66 0 -121.5 28t-93.5 76.5t-55.5 114t-7.5 140.5q11 75 44.5 141t83 114.5t113 77t134.5 28.5q66 0 122 -28.5t94 -77t55.5 -114.5t6.5 -141t-44 -140.5t-82.5 -114t-113 -76.5t-135.5 -28zM348 60q53 0 102.5 23t90 62t68 91.5t35.5 112.5q9 60 -4 112.5
t-42 92.5t-72.5 63t-96.5 23t-102.5 -23t-89.5 -63t-67.5 -92.5t-36.5 -112.5q-8 -60 4.5 -112.5t42 -91.5t72.5 -62t96 -23zM394 779q-17 -8 -22 8l-7 18q-4 12 8 19l148 84q5 3 13 3t12 -11l13 -33q4 -9 0.5 -14t-8.5 -7z" />
    <glyph glyph-name="Ocircumflex" unicode="&#xd4;" horiz-adv-x="758" 
d="M340 -10q-66 0 -121.5 28t-93.5 76.5t-55.5 114t-7.5 140.5q11 75 44.5 141t83 114.5t113 77t134.5 28.5q66 0 122 -28.5t94 -77t55.5 -114.5t6.5 -141t-44 -140.5t-82.5 -114t-113 -76.5t-135.5 -28zM348 60q53 0 102.5 23t90 62t68 91.5t35.5 112.5q9 60 -4 112.5
t-42 92.5t-72.5 63t-96.5 23t-102.5 -23t-89.5 -63t-67.5 -92.5t-36.5 -112.5q-8 -60 4.5 -112.5t42 -91.5t72.5 -62t96 -23zM328 792q-5 9 -2.5 15t7.5 9l119 94q4 3 8 5t10 2h3q5 0 10.5 -4t8.5 -8l84 -91q8 -9 -2 -19l-14 -15q-5 -5 -9.5 -7.5t-11.5 3.5l-78 66l-102 -71
q-15 -11 -22 3z" />
    <glyph glyph-name="Otilde" unicode="&#xd5;" horiz-adv-x="758" 
d="M340 -10q-66 0 -121.5 28t-93.5 76.5t-55.5 114t-7.5 140.5q11 75 44.5 141t83 114.5t113 77t134.5 28.5q66 0 122 -28.5t94 -77t55.5 -114.5t6.5 -141t-44 -140.5t-82.5 -114t-113 -76.5t-135.5 -28zM348 60q53 0 102.5 23t90 62t68 91.5t35.5 112.5q9 60 -4 112.5
t-42 92.5t-72.5 63t-96.5 23t-102.5 -23t-89.5 -63t-67.5 -92.5t-36.5 -112.5q-8 -60 4.5 -112.5t42 -91.5t72.5 -62t96 -23zM330 803q-7 5 -6.5 11.5t2.5 11.5q3 7 10 21t19 28t28.5 24.5t37.5 10.5q20 0 32.5 -11.5t21.5 -25t17 -24.5t20 -11q18 0 27.5 17t14.5 30
q3 8 9 12.5t16 -1.5l14 -8q6 -4 7.5 -10.5t-0.5 -12.5q-3 -10 -10.5 -24.5t-19 -28t-27.5 -23t-36 -9.5q-18 0 -30.5 11.5t-22.5 25t-19 25t-19 11.5t-17.5 -5.5t-13 -13t-9 -16.5t-6.5 -15q-3 -7 -10 -10t-14 2z" />
    <glyph glyph-name="Odieresis" unicode="&#xd6;" horiz-adv-x="758" 
d="M340 -10q-66 0 -121.5 28t-93.5 76.5t-55.5 114t-7.5 140.5q11 75 44.5 141t83 114.5t113 77t134.5 28.5q66 0 122 -28.5t94 -77t55.5 -114.5t6.5 -141t-44 -140.5t-82.5 -114t-113 -76.5t-135.5 -28zM348 60q53 0 102.5 23t90 62t68 91.5t35.5 112.5q9 60 -4 112.5
t-42 92.5t-72.5 63t-96.5 23t-102.5 -23t-89.5 -63t-67.5 -92.5t-36.5 -112.5q-8 -60 4.5 -112.5t42 -91.5t72.5 -62t96 -23zM542 792q-17 0 -28 12t-11 29q0 23 16 38.5t36 15.5q18 0 29 -12t11 -30q0 -22 -16 -37.5t-37 -15.5zM367 792q-17 0 -28 12t-11 29q0 23 16 38.5
t37 15.5q17 0 28 -12t11 -30q0 -22 -16 -37.5t-37 -15.5z" />
    <glyph glyph-name="multiply" unicode="&#xd7;" horiz-adv-x="454" 
d="M72 212q-5 5 -3.5 13t7.5 13l115 112l-81 109q-4 5 -3 13.5t7 13.5l19 17q6 5 13.5 5t11.5 -5l81 -109l118 114q5 5 11.5 4.5t11.5 -5.5l21 -23q5 -5 4 -13t-7 -13l-117 -114l83 -110q5 -6 3 -14t-8 -13l-20 -16q-14 -12 -24 -1l-83 111l-116 -112q-5 -5 -11.5 -5
t-11.5 5z" />
    <glyph glyph-name="Oslash" unicode="&#xd8;" horiz-adv-x="759" 
d="M47 22q-4 5 -3.5 13t6.5 13l64 62q-32 48 -46.5 109t-4.5 130q11 75 44.5 141t83 114.5t113 77t134.5 28.5q62 0 114.5 -24.5t90.5 -68.5l67 65q5 5 12 5t11 -5l5 -5q4 -5 2.5 -13t-6.5 -13l-67 -65q32 -48 45.5 -108t3.5 -129q-11 -75 -44 -140.5t-82.5 -114t-113 -76.5
t-135.5 -28q-61 0 -112.5 23.5t-89.5 65.5l-65 -62q-5 -5 -12 -4.5t-11 5.5zM589 566q-29 35 -69.5 54.5t-89.5 19.5q-53 0 -102.5 -23t-89.5 -63t-67.5 -92.5t-36.5 -112.5q-8 -54 2 -101.5t33 -85.5zM192 130q29 -33 69 -51.5t88 -18.5q53 0 102.5 23t90 62t68 91.5
t35.5 112.5q8 53 -1 100t-32 85z" />
    <glyph glyph-name="Ugrave" unicode="&#xd9;" horiz-adv-x="664" 
d="M148 681q2 8 7.5 13.5t12.5 5.5h43q8 0 12 -5.5t2 -13.5l-58 -417q-6 -43 0 -80t23 -64.5t45 -43t66 -15.5t71 16.5t58 44t41.5 64t22.5 76.5l59 419q1 8 6.5 13.5t12.5 5.5h43q7 0 11.5 -5.5t2.5 -13.5l-59 -423q-8 -57 -29.5 -106t-57 -85t-83.5 -56.5t-108 -20.5
q-51 0 -92 20.5t-68 56.5t-39 85t-4 106zM332 847q-9 5 -10 11.5t3 12.5l21 34q5 7 12.5 6.5t11.5 -3.5l125 -84q4 -2 5.5 -7.5t-2.5 -11.5l-12 -20q-6 -10 -22 -2z" />
    <glyph glyph-name="Uacute" unicode="&#xda;" horiz-adv-x="664" 
d="M148 681q2 8 7.5 13.5t12.5 5.5h43q8 0 12 -5.5t2 -13.5l-58 -417q-6 -43 0 -80t23 -64.5t45 -43t66 -15.5t71 16.5t58 44t41.5 64t22.5 76.5l59 419q1 8 6.5 13.5t12.5 5.5h43q7 0 11.5 -5.5t2.5 -13.5l-59 -423q-8 -57 -29.5 -106t-57 -85t-83.5 -56.5t-108 -20.5
q-51 0 -92 20.5t-68 56.5t-39 85t-4 106zM342 779q-17 -8 -22 8l-7 18q-4 12 8 19l148 84q5 3 13 3t12 -11l13 -33q4 -9 0.5 -14t-8.5 -7z" />
    <glyph glyph-name="Ucircumflex" unicode="&#xdb;" horiz-adv-x="664" 
d="M148 681q2 8 7.5 13.5t12.5 5.5h43q8 0 12 -5.5t2 -13.5l-58 -417q-6 -43 0 -80t23 -64.5t45 -43t66 -15.5t71 16.5t58 44t41.5 64t22.5 76.5l59 419q1 8 6.5 13.5t12.5 5.5h43q7 0 11.5 -5.5t2.5 -13.5l-59 -423q-8 -57 -29.5 -106t-57 -85t-83.5 -56.5t-108 -20.5
q-51 0 -92 20.5t-68 56.5t-39 85t-4 106zM277 792q-5 9 -2.5 15t7.5 9l119 94q4 3 8 5t10 2h3q5 0 10.5 -4t8.5 -8l84 -91q8 -9 -2 -19l-14 -15q-5 -5 -9.5 -7.5t-11.5 3.5l-78 66l-102 -71q-15 -11 -22 3z" />
    <glyph glyph-name="Udieresis" unicode="&#xdc;" horiz-adv-x="664" 
d="M148 681q2 8 7.5 13.5t12.5 5.5h43q8 0 12 -5.5t2 -13.5l-58 -417q-6 -43 0 -80t23 -64.5t45 -43t66 -15.5t71 16.5t58 44t41.5 64t22.5 76.5l59 419q1 8 6.5 13.5t12.5 5.5h43q7 0 11.5 -5.5t2.5 -13.5l-59 -423q-8 -57 -29.5 -106t-57 -85t-83.5 -56.5t-108 -20.5
q-51 0 -92 20.5t-68 56.5t-39 85t-4 106zM489 792q-17 0 -28 12t-11 29q0 23 16 38.5t36 15.5q18 0 29 -12t11 -30q0 -22 -16 -37.5t-37 -15.5zM314 792q-17 0 -28 12t-11 29q0 23 16 38.5t37 15.5q17 0 28 -12t11 -30q0 -22 -16 -37.5t-37 -15.5z" />
    <glyph glyph-name="Yacute" unicode="&#xdd;" horiz-adv-x="518" 
d="M227 337l-170 339q-5 9 -1 16.5t15 7.5h46q5 0 8.5 -3t5.5 -6l139 -285h2l222 285q2 3 6.5 6t9.5 3h48q11 0 14 -9.5t-4 -19.5l-264 -333l-45 -319q-1 -8 -7 -13.5t-13 -5.5h-42q-8 0 -12 5.5t-3 13.5zM264 779q-17 -8 -22 8l-7 18q-4 12 8 19l148 84q5 3 13 3t12 -11
l13 -33q4 -9 0.5 -14t-8.5 -7z" />
    <glyph glyph-name="Thorn" unicode="&#xde;" horiz-adv-x="553" 
d="M156 680q2 8 7 14t13 6h42q7 0 11.5 -5.5t3.5 -13.5l-15 -107h141q37 0 68.5 -15t54.5 -42t36.5 -64t13.5 -79q0 -50 -19 -95t-51 -78.5t-74.5 -53t-89.5 -19.5h-143l-15 -109q-2 -8 -7.5 -13.5t-12.5 -5.5h-42q-8 0 -12 5.5t-3 13.5zM302 202q29 0 56.5 13.5t49 37
t34.5 54.5t13 67q0 26 -8.5 49t-23.5 39.5t-35 26t-44 9.5h-137l-42 -296h137z" />
    <glyph glyph-name="germandbls" unicode="&#xdf;" horiz-adv-x="492" 
d="M196 59q5 16 21 9q8 -4 27.5 -10.5t42.5 -6.5q32 0 55.5 23.5t23.5 64.5q0 27 -15 54t-32.5 53t-32.5 51t-15 49q0 25 17.5 53t38.5 57t38.5 58t17.5 56q0 38 -22 58t-49 20q-118 0 -153 -238l-99 -691q-1 -8 -7 -13.5t-13 -5.5h-36q-7 0 -11.5 5.5t-2.5 13.5l99 692
q21 149 81 224t154 75q26 0 50 -7.5t42 -22.5t29 -39t11 -57q0 -42 -17.5 -76.5t-38 -63.5t-38 -51.5t-17.5 -40.5q0 -15 14 -37t31.5 -50t31.5 -61t14 -69t-12 -63t-32.5 -45.5t-46.5 -27.5t-53 -9q-32 0 -57.5 7t-36.5 12q-5 2 -10 7t-1 16z" />
    <glyph glyph-name="agrave" unicode="&#xe0;" 
d="M344 15q-2 -15 -18 -15h-22q-11 0 -13 15l-4 27q-1 0 -9.5 -8t-24 -18t-37 -18t-48.5 -8q-30 0 -55.5 14t-44 38t-29 56.5t-10.5 68.5q0 57 16 102t43 76.5t63 48t77 16.5q24 0 42.5 -7.5t30.5 -15.5q14 -10 24 -22l13 26q4 9 14 9h22q14 0 13 -16zM308 296q-7 13 -19 24
q-11 9 -27.5 16.5t-39.5 7.5q-22 0 -44 -9.5t-40 -31t-29 -55t-11 -81.5q0 -21 5.5 -41.5t16 -36.5t27 -26t38.5 -10q24 0 42.5 10t32.5 23q16 14 28 33zM211 626q-9 5 -10 11.5t3 12.5l21 34q5 7 12.5 6.5t11.5 -3.5l125 -84q4 -2 5.5 -7.5t-2.5 -11.5l-12 -20
q-6 -10 -22 -2z" />
    <glyph glyph-name="aacute" unicode="&#xe1;" 
d="M344 15q-2 -15 -18 -15h-22q-11 0 -13 15l-4 27q-1 0 -9.5 -8t-24 -18t-37 -18t-48.5 -8q-30 0 -55.5 14t-44 38t-29 56.5t-10.5 68.5q0 57 16 102t43 76.5t63 48t77 16.5q24 0 42.5 -7.5t30.5 -15.5q14 -10 24 -22l13 26q4 9 14 9h22q14 0 13 -16zM308 296q-7 13 -19 24
q-11 9 -27.5 16.5t-39.5 7.5q-22 0 -44 -9.5t-40 -31t-29 -55t-11 -81.5q0 -21 5.5 -41.5t16 -36.5t27 -26t38.5 -10q24 0 42.5 10t32.5 23q16 14 28 33zM221 557q-17 -8 -22 8l-7 18q-4 12 8 19l148 84q5 3 13 3t12 -11l13 -33q4 -9 0.5 -14t-8.5 -7z" />
    <glyph glyph-name="acircumflex" unicode="&#xe2;" 
d="M344 15q-2 -15 -18 -15h-22q-11 0 -13 15l-4 27q-1 0 -9.5 -8t-24 -18t-37 -18t-48.5 -8q-30 0 -55.5 14t-44 38t-29 56.5t-10.5 68.5q0 57 16 102t43 76.5t63 48t77 16.5q24 0 42.5 -7.5t30.5 -15.5q14 -10 24 -22l13 26q4 9 14 9h22q14 0 13 -16zM308 296q-7 13 -19 24
q-11 9 -27.5 16.5t-39.5 7.5q-22 0 -44 -9.5t-40 -31t-29 -55t-11 -81.5q0 -21 5.5 -41.5t16 -36.5t27 -26t38.5 -10q24 0 42.5 10t32.5 23q16 14 28 33zM156 572q-5 9 -2.5 15t7.5 9l119 94q4 3 8 5t10 2h3q5 0 10.5 -4t8.5 -8l84 -91q8 -9 -2 -19l-14 -15q-5 -5 -9.5 -7.5
t-11.5 3.5l-78 66l-102 -71q-15 -11 -22 3z" />
    <glyph glyph-name="atilde" unicode="&#xe3;" 
d="M344 15q-2 -15 -18 -15h-22q-11 0 -13 15l-4 27q-1 0 -9.5 -8t-24 -18t-37 -18t-48.5 -8q-30 0 -55.5 14t-44 38t-29 56.5t-10.5 68.5q0 57 16 102t43 76.5t63 48t77 16.5q24 0 42.5 -7.5t30.5 -15.5q14 -10 24 -22l13 26q4 9 14 9h22q14 0 13 -16zM308 296q-7 13 -19 24
q-11 9 -27.5 16.5t-39.5 7.5q-22 0 -44 -9.5t-40 -31t-29 -55t-11 -81.5q0 -21 5.5 -41.5t16 -36.5t27 -26t38.5 -10q24 0 42.5 10t32.5 23q16 14 28 33zM158 583q-7 5 -6.5 11.5t2.5 11.5q3 7 10 21t19 28t28.5 24.5t37.5 10.5q20 0 32.5 -11.5t21.5 -25t17 -24.5t20 -11
q18 0 27.5 17t14.5 30q3 8 9 12.5t16 -1.5l14 -8q6 -4 7.5 -10.5t-0.5 -12.5q-3 -10 -10.5 -24.5t-19 -28t-27.5 -23t-36 -9.5q-18 0 -30.5 11.5t-22.5 25t-19 25t-19 11.5t-17.5 -5.5t-13 -13t-9 -16.5t-6.5 -15q-3 -7 -10 -10t-14 2z" />
    <glyph glyph-name="adieresis" unicode="&#xe4;" 
d="M344 15q-2 -15 -18 -15h-22q-11 0 -13 15l-4 27q-1 0 -9.5 -8t-24 -18t-37 -18t-48.5 -8q-30 0 -55.5 14t-44 38t-29 56.5t-10.5 68.5q0 57 16 102t43 76.5t63 48t77 16.5q24 0 42.5 -7.5t30.5 -15.5q14 -10 24 -22l13 26q4 9 14 9h22q14 0 13 -16zM308 296q-7 13 -19 24
q-11 9 -27.5 16.5t-39.5 7.5q-22 0 -44 -9.5t-40 -31t-29 -55t-11 -81.5q0 -21 5.5 -41.5t16 -36.5t27 -26t38.5 -10q24 0 42.5 10t32.5 23q16 14 28 33zM372 585q-17 0 -28 12t-11 29q0 23 16 38.5t36 15.5q18 0 29 -12t11 -30q0 -22 -16 -37.5t-37 -15.5zM197 585
q-17 0 -28 12t-11 29q0 23 16 38.5t37 15.5q17 0 28 -12t11 -30q0 -22 -16 -37.5t-37 -15.5z" />
    <glyph glyph-name="aring" unicode="&#xe5;" 
d="M344 15q-2 -15 -18 -15h-22q-11 0 -13 15l-4 27q-1 0 -9.5 -8t-24 -18t-37 -18t-48.5 -8q-30 0 -55.5 14t-44 38t-29 56.5t-10.5 68.5q0 57 16 102t43 76.5t63 48t77 16.5q24 0 42.5 -7.5t30.5 -15.5q14 -10 24 -22l13 26q4 9 14 9h22q14 0 13 -16zM308 296q-7 13 -19 24
q-11 9 -27.5 16.5t-39.5 7.5q-22 0 -44 -9.5t-40 -31t-29 -55t-11 -81.5q0 -21 5.5 -41.5t16 -36.5t27 -26t38.5 -10q24 0 42.5 10t32.5 23q16 14 28 33zM272 492q-38 0 -61.5 27.5t-23.5 66.5q0 26 9 48.5t25 39.5t36.5 26.5t44.5 9.5q37 0 61 -27.5t24 -66.5
q0 -26 -9.5 -48.5t-25 -39.5t-36.5 -26.5t-44 -9.5zM278 540q23 0 41 21t18 48q0 20 -10.5 35.5t-31.5 15.5q-23 0 -41.5 -19.5t-18.5 -46.5q0 -21 11 -37.5t32 -16.5z" />
    <glyph glyph-name="ae" unicode="&#xe6;" horiz-adv-x="612" 
d="M119 -10q-53 0 -82.5 36.5t-21.5 97.5q4 28 17.5 51.5t34 41t47 27t58.5 9.5q17 0 32.5 -1.5t26.5 -3.5q13 -3 23 -5q12 62 3.5 83.5t-42.5 21.5q-42 0 -71.5 -9t-39.5 -13q-10 -3 -15 1t-6 12l-2 27q-1 15 18 20q18 7 39 12q18 5 41 8.5t49 3.5q45 0 63 -16t26 -39
q27 24 62 39.5t72 15.5q61 0 92 -30t31 -75q0 -66 -68 -100t-200 -22q-2 -25 3.5 -48.5t18 -41.5t30.5 -29t41 -11q26 0 49 10t38 20q10 6 16 6t13 -11l11 -16q5 -7 4 -12.5t-11 -13.5q-20 -16 -54.5 -31t-79.5 -15q-41 0 -70 17.5t-48 49.5q-12 -13 -28.5 -25t-36 -21.5
t-41 -15t-42.5 -5.5zM316 239q89 -8 139 9t50 53q0 20 -16 34t-47 14q-21 0 -41 -8.5t-37.5 -23.5t-30 -35t-17.5 -43zM77 122q-5 -32 14.5 -50.5t47.5 -18.5q29 0 55 15t40 34l12 89q-8 2 -19 4q-9 2 -22.5 3t-31.5 1q-34 0 -62 -19.5t-34 -57.5z" />
    <glyph glyph-name="ccedilla" unicode="&#xe7;" horiz-adv-x="411" 
d="M143 -1q-24 8 -44.5 24t-35.5 38t-24 49.5t-9 59.5q0 50 17.5 94t47 76.5t68.5 51t83 18.5q41 0 72 -18.5t51 -53.5q4 -7 1.5 -14t-9.5 -12l-18 -13q-8 -6 -14.5 -4t-10.5 8q-12 19 -30.5 29.5t-44.5 10.5q-27 0 -52.5 -13t-45 -35t-31 -52.5t-11.5 -64.5q0 -26 7 -48.5
t19.5 -39.5t30 -27t38.5 -10q18 0 33.5 6.5t27.5 16t20 19.5t13 17q11 18 26 6l21 -18q11 -10 1 -26q-20 -32 -58.5 -57.5t-90.5 -26.5l-5 -44q35 -7 57.5 -31t22.5 -65q0 -21 -7 -41t-20.5 -35.5t-33 -24.5t-44.5 -9q-23 0 -41 10.5t-27 25.5q-5 7 -3.5 13.5t6.5 11.5
l12 11q5 5 10.5 5t9.5 -5q15 -18 36 -18q20 0 33 16t13 39q0 15 -6 24.5t-15.5 15.5t-21 9.5t-22.5 5.5t-12.5 9t-0.5 11z" />
    <glyph glyph-name="egrave" unicode="&#xe8;" horiz-adv-x="403" 
d="M30 167q0 49 15.5 93t43.5 77.5t67 53t86 19.5q61 0 92 -30t31 -75q0 -66 -68 -100t-200 -22q-2 -25 3.5 -48.5t18 -41.5t30.5 -29t41 -11q26 0 49.5 10t40.5 21q8 5 14 4t11 -9l12 -17q4 -6 3.5 -12t-10.5 -14q-20 -14 -54.5 -30t-79.5 -16q-32 0 -58.5 14t-46 38.5
t-30.5 56.5t-11 68zM106 235q89 -8 139.5 11t50.5 55q0 20 -16 34t-47 14q-21 0 -41.5 -9t-37.5 -24.5t-30 -36.5t-18 -44zM188 626q-9 5 -10 11.5t3 12.5l21 34q5 7 12.5 6.5t11.5 -3.5l125 -84q4 -2 5.5 -7.5t-2.5 -11.5l-12 -20q-6 -10 -22 -2z" />
    <glyph glyph-name="eacute" unicode="&#xe9;" horiz-adv-x="403" 
d="M30 167q0 49 15.5 93t43.5 77.5t67 53t86 19.5q61 0 92 -30t31 -75q0 -66 -68 -100t-200 -22q-2 -25 3.5 -48.5t18 -41.5t30.5 -29t41 -11q26 0 49.5 10t40.5 21q8 5 14 4t11 -9l12 -17q4 -6 3.5 -12t-10.5 -14q-20 -14 -54.5 -30t-79.5 -16q-32 0 -58.5 14t-46 38.5
t-30.5 56.5t-11 68zM106 235q89 -8 139.5 11t50.5 55q0 20 -16 34t-47 14q-21 0 -41.5 -9t-37.5 -24.5t-30 -36.5t-18 -44zM198 557q-17 -8 -22 8l-7 18q-4 12 8 19l148 84q5 3 13 3t12 -11l13 -33q4 -9 0.5 -14t-8.5 -7z" />
    <glyph glyph-name="ecircumflex" unicode="&#xea;" horiz-adv-x="403" 
d="M30 167q0 49 15.5 93t43.5 77.5t67 53t86 19.5q61 0 92 -30t31 -75q0 -66 -68 -100t-200 -22q-2 -25 3.5 -48.5t18 -41.5t30.5 -29t41 -11q26 0 49.5 10t40.5 21q8 5 14 4t11 -9l12 -17q4 -6 3.5 -12t-10.5 -14q-20 -14 -54.5 -30t-79.5 -16q-32 0 -58.5 14t-46 38.5
t-30.5 56.5t-11 68zM106 235q89 -8 139.5 11t50.5 55q0 20 -16 34t-47 14q-21 0 -41.5 -9t-37.5 -24.5t-30 -36.5t-18 -44zM134 572q-5 9 -2.5 15t7.5 9l119 94q4 3 8 5t10 2h3q5 0 10.5 -4t8.5 -8l84 -91q8 -9 -2 -19l-14 -15q-5 -5 -9.5 -7.5t-11.5 3.5l-78 66l-102 -71
q-15 -11 -22 3z" />
    <glyph glyph-name="edieresis" unicode="&#xeb;" horiz-adv-x="403" 
d="M30 167q0 49 15.5 93t43.5 77.5t67 53t86 19.5q61 0 92 -30t31 -75q0 -66 -68 -100t-200 -22q-2 -25 3.5 -48.5t18 -41.5t30.5 -29t41 -11q26 0 49.5 10t40.5 21q8 5 14 4t11 -9l12 -17q4 -6 3.5 -12t-10.5 -14q-20 -14 -54.5 -30t-79.5 -16q-32 0 -58.5 14t-46 38.5
t-30.5 56.5t-11 68zM106 235q89 -8 139.5 11t50.5 55q0 20 -16 34t-47 14q-21 0 -41.5 -9t-37.5 -24.5t-30 -36.5t-18 -44zM349 585q-17 0 -28 12t-11 29q0 23 16 38.5t36 15.5q18 0 29 -12t11 -30q0 -22 -16 -37.5t-37 -15.5zM174 585q-17 0 -28 12t-11 29q0 23 16 38.5
t37 15.5q17 0 28 -12t11 -30q0 -22 -16 -37.5t-37 -15.5z" />
    <glyph glyph-name="igrave" unicode="&#xec;" horiz-adv-x="207" 
d="M83 381q2 8 7.5 13.5t12.5 5.5h35q7 0 11.5 -5.5t3.5 -13.5l-51 -362q-1 -8 -7 -13.5t-13 -5.5h-35q-7 0 -11 5.5t-3 13.5zM74 626q-9 5 -10 11.5t3 12.5l21 34q5 7 12.5 6.5t11.5 -3.5l125 -84q4 -2 5.5 -7.5t-2.5 -11.5l-12 -20q-6 -10 -22 -2z" />
    <glyph glyph-name="iacute" unicode="&#xed;" horiz-adv-x="207" 
d="M83 381q2 8 7.5 13.5t12.5 5.5h35q7 0 11.5 -5.5t3.5 -13.5l-51 -362q-1 -8 -7 -13.5t-13 -5.5h-35q-7 0 -11 5.5t-3 13.5zM84 557q-17 -8 -22 8l-7 18q-4 12 8 19l148 84q5 3 13 3t12 -11l13 -33q4 -9 0.5 -14t-8.5 -7z" />
    <glyph glyph-name="icircumflex" unicode="&#xee;" horiz-adv-x="207" 
d="M83 381q2 8 7.5 13.5t12.5 5.5h35q7 0 11.5 -5.5t3.5 -13.5l-51 -362q-1 -8 -7 -13.5t-13 -5.5h-35q-7 0 -11 5.5t-3 13.5zM18 572q-5 9 -2.5 15t7.5 9l119 94q4 3 8 5t10 2h3q5 0 10.5 -4t8.5 -8l84 -91q8 -9 -2 -19l-14 -15q-5 -5 -9.5 -7.5t-11.5 3.5l-78 66l-102 -71
q-15 -11 -22 3z" />
    <glyph glyph-name="idieresis" unicode="&#xef;" horiz-adv-x="207" 
d="M83 381q2 8 7.5 13.5t12.5 5.5h35q7 0 11.5 -5.5t3.5 -13.5l-51 -362q-1 -8 -7 -13.5t-13 -5.5h-35q-7 0 -11 5.5t-3 13.5zM234 585q-17 0 -28 12t-11 29q0 23 16 38.5t36 15.5q18 0 29 -12t11 -30q0 -22 -16 -37.5t-37 -15.5zM59 585q-17 0 -28 12t-11 29q0 23 16 38.5
t37 15.5q17 0 28 -12t11 -30q0 -22 -16 -37.5t-37 -15.5z" />
    <glyph glyph-name="eth" unicode="&#xf0;" horiz-adv-x="499" 
d="M31 188q0 57 18.5 102.5t49.5 78t71.5 50t85.5 17.5q27 0 49 -7t38.5 -15t26.5 -15t11 -8q-5 51 -30 95t-57 77l-94 -56q-7 -4 -13 -1.5t-8 8.5l-3 7q-3 6 -0.5 13.5t9.5 11.5l76 46q-29 24 -48 36.5t-30 17.5q-15 7 -5 24l16 26q7 12 21 7q18 -8 47.5 -26t62.5 -48
l72 40q15 9 22 -7l3 -7q3 -6 0.5 -13.5t-9.5 -11.5l-56 -31q39 -44 69 -111.5t30 -154.5q0 -68 -18 -130t-51 -109.5t-80.5 -75.5t-105.5 -28q-37 0 -68 15.5t-53.5 42.5t-35.5 63t-13 77zM101 192q0 -27 8 -52t22 -43.5t34.5 -29.5t44.5 -11q43 0 75 25t53.5 62.5t32.5 81
t11 81.5l-9 10t-25 22.5t-39.5 22.5t-53.5 10t-58 -14t-49 -38.5t-34 -57t-13 -69.5z" />
    <glyph glyph-name="ntilde" unicode="&#xf1;" horiz-adv-x="463" 
d="M83 381q1 8 6 13.5t14 5.5h20q11 0 13 -12l4 -31q1 0 11.5 8.5t28.5 18t42 18t52 8.5q36 0 61 -13.5t39.5 -37.5t18.5 -57t-1 -72l-30 -211q-1 -8 -7 -13.5t-13 -5.5h-36q-7 0 -11.5 5.5t-2.5 13.5l29 211q8 57 -8.5 85t-54.5 28q-24 0 -45.5 -9t-37.5 -19.5t-25.5 -19.5
t-10.5 -9l-37 -267q-1 -8 -7 -13.5t-14 -5.5h-34q-7 0 -11.5 5.5t-2.5 13.5zM145 583q-7 5 -6.5 11.5t2.5 11.5q3 7 10 21t19 28t28.5 24.5t37.5 10.5q20 0 32.5 -11.5t21.5 -25t17 -24.5t20 -11q18 0 27.5 17t14.5 30q3 8 9 12.5t16 -1.5l14 -8q6 -4 7.5 -10.5t-0.5 -12.5
q-3 -10 -10.5 -24.5t-19 -28t-27.5 -23t-36 -9.5q-18 0 -30.5 11.5t-22.5 25t-19 25t-19 11.5t-17.5 -5.5t-13 -13t-9 -16.5t-6.5 -15q-3 -7 -10 -10t-14 2z" />
    <glyph glyph-name="ograve" unicode="&#xf2;" horiz-adv-x="445" 
d="M29 172q0 48 16.5 91t45 76t66.5 52t82 19q32 0 60 -14.5t49 -39.5t33.5 -57.5t12.5 -69.5q0 -48 -16.5 -91.5t-45 -76.5t-66.5 -52t-82 -19q-32 0 -60 14.5t-49 39.5t-33.5 58t-12.5 70zM191 53q26 0 50.5 13.5t43 37t29.5 54t11 65.5q0 25 -7 46.5t-19 38t-29 26
t-38 9.5q-26 0 -50.5 -13t-43.5 -35.5t-30 -52.5t-11 -64q0 -26 7 -48.5t19 -39.5t29.5 -27t38.5 -10zM190 626q-9 5 -10 11.5t3 12.5l21 34q5 7 12.5 6.5t11.5 -3.5l125 -84q4 -2 5.5 -7.5t-2.5 -11.5l-12 -20q-6 -10 -22 -2z" />
    <glyph glyph-name="oacute" unicode="&#xf3;" horiz-adv-x="445" 
d="M29 172q0 48 16.5 91t45 76t66.5 52t82 19q32 0 60 -14.5t49 -39.5t33.5 -57.5t12.5 -69.5q0 -48 -16.5 -91.5t-45 -76.5t-66.5 -52t-82 -19q-32 0 -60 14.5t-49 39.5t-33.5 58t-12.5 70zM191 53q26 0 50.5 13.5t43 37t29.5 54t11 65.5q0 25 -7 46.5t-19 38t-29 26
t-38 9.5q-26 0 -50.5 -13t-43.5 -35.5t-30 -52.5t-11 -64q0 -26 7 -48.5t19 -39.5t29.5 -27t38.5 -10zM200 557q-17 -8 -22 8l-7 18q-4 12 8 19l148 84q5 3 13 3t12 -11l13 -33q4 -9 0.5 -14t-8.5 -7z" />
    <glyph glyph-name="ocircumflex" unicode="&#xf4;" horiz-adv-x="445" 
d="M29 172q0 48 16.5 91t45 76t66.5 52t82 19q32 0 60 -14.5t49 -39.5t33.5 -57.5t12.5 -69.5q0 -48 -16.5 -91.5t-45 -76.5t-66.5 -52t-82 -19q-32 0 -60 14.5t-49 39.5t-33.5 58t-12.5 70zM191 53q26 0 50.5 13.5t43 37t29.5 54t11 65.5q0 25 -7 46.5t-19 38t-29 26
t-38 9.5q-26 0 -50.5 -13t-43.5 -35.5t-30 -52.5t-11 -64q0 -26 7 -48.5t19 -39.5t29.5 -27t38.5 -10zM135 572q-5 9 -2.5 15t7.5 9l119 94q4 3 8 5t10 2h3q5 0 10.5 -4t8.5 -8l84 -91q8 -9 -2 -19l-14 -15q-5 -5 -9.5 -7.5t-11.5 3.5l-78 66l-102 -71q-15 -11 -22 3z" />
    <glyph glyph-name="otilde" unicode="&#xf5;" horiz-adv-x="445" 
d="M29 172q0 48 16.5 91t45 76t66.5 52t82 19q32 0 60 -14.5t49 -39.5t33.5 -57.5t12.5 -69.5q0 -48 -16.5 -91.5t-45 -76.5t-66.5 -52t-82 -19q-32 0 -60 14.5t-49 39.5t-33.5 58t-12.5 70zM191 53q26 0 50.5 13.5t43 37t29.5 54t11 65.5q0 25 -7 46.5t-19 38t-29 26
t-38 9.5q-26 0 -50.5 -13t-43.5 -35.5t-30 -52.5t-11 -64q0 -26 7 -48.5t19 -39.5t29.5 -27t38.5 -10zM138 583q-7 5 -6.5 11.5t2.5 11.5q3 7 10 21t19 28t28.5 24.5t37.5 10.5q20 0 32.5 -11.5t21.5 -25t17 -24.5t20 -11q18 0 27.5 17t14.5 30q3 8 9 12.5t16 -1.5l14 -8
q6 -4 7.5 -10.5t-0.5 -12.5q-3 -10 -10.5 -24.5t-19 -28t-27.5 -23t-36 -9.5q-18 0 -30.5 11.5t-22.5 25t-19 25t-19 11.5t-17.5 -5.5t-13 -13t-9 -16.5t-6.5 -15q-3 -7 -10 -10t-14 2z" />
    <glyph glyph-name="odieresis" unicode="&#xf6;" horiz-adv-x="445" 
d="M29 172q0 48 16.5 91t45 76t66.5 52t82 19q32 0 60 -14.5t49 -39.5t33.5 -57.5t12.5 -69.5q0 -48 -16.5 -91.5t-45 -76.5t-66.5 -52t-82 -19q-32 0 -60 14.5t-49 39.5t-33.5 58t-12.5 70zM191 53q26 0 50.5 13.5t43 37t29.5 54t11 65.5q0 25 -7 46.5t-19 38t-29 26
t-38 9.5q-26 0 -50.5 -13t-43.5 -35.5t-30 -52.5t-11 -64q0 -26 7 -48.5t19 -39.5t29.5 -27t38.5 -10zM351 585q-17 0 -28 12t-11 29q0 23 16 38.5t36 15.5q18 0 29 -12t11 -30q0 -22 -16 -37.5t-37 -15.5zM176 585q-17 0 -28 12t-11 29q0 23 16 38.5t37 15.5q17 0 28 -12
t11 -30q0 -22 -16 -37.5t-37 -15.5z" />
    <glyph glyph-name="divide" unicode="&#xf7;" horiz-adv-x="496" 
d="M273 472q-20 0 -33 15t-13 35q0 27 19 45.5t43 18.5q20 0 32.5 -14.5t12.5 -34.5q0 -26 -18.5 -45.5t-42.5 -19.5zM81 314q-7 0 -11 5.5t-3 13.5l4 28q1 8 7 13.5t13 5.5h344q7 0 11 -5.5t3 -13.5l-4 -28q-1 -8 -6.5 -13.5t-12.5 -5.5h-345zM177 164q0 27 19 45.5
t42 18.5q20 0 33 -14.5t13 -34.5q0 -26 -18.5 -45.5t-43.5 -19.5q-20 0 -32.5 15t-12.5 35z" />
    <glyph glyph-name="oslash" unicode="&#xf8;" horiz-adv-x="445" 
d="M30 29q-5 5 -3.5 13t6.5 13l20 20q-11 21 -17.5 45.5t-6.5 51.5q0 48 16.5 91t45 76t66.5 52t82 19q32 0 59.5 -14t48.5 -38l24 23q6 6 13 6t11 -6l5 -5q5 -5 4 -13t-8 -13l-26 -25q11 -21 17.5 -45.5t6.5 -50.5q0 -48 -16.5 -91.5t-45 -76.5t-66.5 -52t-82 -19
q-32 0 -59.5 14t-48.5 38l-18 -18q-6 -6 -12.5 -5.5t-11.5 5.5zM297 310q-12 16 -28.5 25t-36.5 9q-26 0 -50.5 -13t-43.5 -35.5t-30 -53t-11 -64.5q0 -14 1.5 -27.5t6.5 -25.5zM125 88q25 -33 66 -33q26 0 50.5 13.5t43 36t29.5 53t11 65.5q0 25 -8 51z" />
    <glyph glyph-name="ugrave" unicode="&#xf9;" horiz-adv-x="452" 
d="M165 -10q-38 0 -62.5 13.5t-38.5 37.5t-17.5 57t2.5 73l29 210q2 8 7.5 13.5t12.5 5.5h36q7 0 11.5 -5.5t3.5 -13.5l-30 -211q-8 -57 9 -87t54 -30q24 0 43.5 9.5t34 21t23 21l8.5 9.5l38 267q1 8 6.5 13.5t13.5 5.5h34q7 0 11.5 -5.5t3.5 -13.5l-51 -362
q-1 -8 -6.5 -13.5t-13.5 -5.5h-20q-7 0 -9 4.5t-4 12.5l-4 26q-1 -1 -10.5 -9.5t-25.5 -18t-38.5 -17.5t-50.5 -8zM194 626q-9 5 -10 11.5t3 12.5l21 34q5 7 12.5 6.5t11.5 -3.5l125 -84q4 -2 5.5 -7.5t-2.5 -11.5l-12 -20q-6 -10 -22 -2z" />
    <glyph glyph-name="uacute" unicode="&#xfa;" horiz-adv-x="452" 
d="M165 -10q-38 0 -62.5 13.5t-38.5 37.5t-17.5 57t2.5 73l29 210q2 8 7.5 13.5t12.5 5.5h36q7 0 11.5 -5.5t3.5 -13.5l-30 -211q-8 -57 9 -87t54 -30q24 0 43.5 9.5t34 21t23 21l8.5 9.5l38 267q1 8 6.5 13.5t13.5 5.5h34q7 0 11.5 -5.5t3.5 -13.5l-51 -362
q-1 -8 -6.5 -13.5t-13.5 -5.5h-20q-7 0 -9 4.5t-4 12.5l-4 26q-1 -1 -10.5 -9.5t-25.5 -18t-38.5 -17.5t-50.5 -8zM205 557q-17 -8 -22 8l-7 18q-4 12 8 19l148 84q5 3 13 3t12 -11l13 -33q4 -9 0.5 -14t-8.5 -7z" />
    <glyph glyph-name="ucircumflex" unicode="&#xfb;" horiz-adv-x="452" 
d="M165 -10q-38 0 -62.5 13.5t-38.5 37.5t-17.5 57t2.5 73l29 210q2 8 7.5 13.5t12.5 5.5h36q7 0 11.5 -5.5t3.5 -13.5l-30 -211q-8 -57 9 -87t54 -30q24 0 43.5 9.5t34 21t23 21l8.5 9.5l38 267q1 8 6.5 13.5t13.5 5.5h34q7 0 11.5 -5.5t3.5 -13.5l-51 -362
q-1 -8 -6.5 -13.5t-13.5 -5.5h-20q-7 0 -9 4.5t-4 12.5l-4 26q-1 -1 -10.5 -9.5t-25.5 -18t-38.5 -17.5t-50.5 -8zM140 572q-5 9 -2.5 15t7.5 9l119 94q4 3 8 5t10 2h3q5 0 10.5 -4t8.5 -8l84 -91q8 -9 -2 -19l-14 -15q-5 -5 -9.5 -7.5t-11.5 3.5l-78 66l-102 -71
q-15 -11 -22 3z" />
    <glyph glyph-name="udieresis" unicode="&#xfc;" horiz-adv-x="452" 
d="M165 -10q-38 0 -62.5 13.5t-38.5 37.5t-17.5 57t2.5 73l29 210q2 8 7.5 13.5t12.5 5.5h36q7 0 11.5 -5.5t3.5 -13.5l-30 -211q-8 -57 9 -87t54 -30q24 0 43.5 9.5t34 21t23 21l8.5 9.5l38 267q1 8 6.5 13.5t13.5 5.5h34q7 0 11.5 -5.5t3.5 -13.5l-51 -362
q-1 -8 -6.5 -13.5t-13.5 -5.5h-20q-7 0 -9 4.5t-4 12.5l-4 26q-1 -1 -10.5 -9.5t-25.5 -18t-38.5 -17.5t-50.5 -8zM355 585q-17 0 -28 12t-11 29q0 23 16 38.5t36 15.5q18 0 29 -12t11 -30q0 -22 -16 -37.5t-37 -15.5zM180 585q-17 0 -28 12t-11 29q0 23 16 38.5t37 15.5
q17 0 28 -12t11 -30q0 -22 -16 -37.5t-37 -15.5z" />
    <glyph glyph-name="yacute" unicode="&#xfd;" horiz-adv-x="426" 
d="M27 378q-3 10 1.5 16t15.5 6h35q11 0 14 -11l89 -310h1l170 310q5 11 17 11h39q10 0 13.5 -6.5t-1.5 -16.5l-370 -665q-2 -5 -7 -8.5t-10 -3.5h-42q-10 0 -13 5.5t3 16.5l157 279zM190 557q-17 -8 -22 8l-7 18q-4 12 8 19l148 84q5 3 13 3t12 -11l13 -33q4 -9 0.5 -14
t-8.5 -7z" />
    <glyph glyph-name="thorn" unicode="&#xfe;" horiz-adv-x="451" 
d="M61 -281q-1 -8 -7 -13.5t-13 -5.5h-35q-7 0 -11.5 5.5t-3.5 13.5l136 962q1 8 6.5 13.5t12.5 5.5h36q7 0 11 -5.5t3 -13.5l-43 -309q1 0 8.5 6t20.5 13t31.5 13t41.5 6q33 0 59.5 -15t45.5 -40t29 -57.5t10 -66.5q0 -50 -15.5 -94t-43.5 -76.5t-65.5 -51.5t-82.5 -19
q-20 0 -36 5t-27.5 11.5t-17.5 11.5t-7 5zM114 92q1 0 7 -5.5t16 -12t24.5 -12t31.5 -5.5q28 0 53 13t43.5 36t29 53.5t10.5 66.5q0 24 -6 46t-17 38.5t-28.5 26.5t-39.5 10q-21 0 -38.5 -8t-30.5 -17q-15 -11 -27 -24q-8 -52 -14.5 -103t-13.5 -103z" />
    <glyph glyph-name="ydieresis" unicode="&#xff;" horiz-adv-x="426" 
d="M27 378q-3 10 1.5 16t15.5 6h35q11 0 14 -11l89 -310h1l170 310q5 11 17 11h39q10 0 13.5 -6.5t-1.5 -16.5l-370 -665q-2 -5 -7 -8.5t-10 -3.5h-42q-10 0 -13 5.5t3 16.5l157 279zM340 585q-17 0 -28 12t-11 29q0 23 16 38.5t36 15.5q18 0 29 -12t11 -30q0 -22 -16 -37.5
t-37 -15.5zM165 585q-17 0 -28 12t-11 29q0 23 16 38.5t37 15.5q17 0 28 -12t11 -30q0 -22 -16 -37.5t-37 -15.5z" />
    <glyph glyph-name="dotlessi" unicode="&#x131;" horiz-adv-x="207" 
d="M83 381q2 8 7.5 13.5t12.5 5.5h35q7 0 11.5 -5.5t3.5 -13.5l-51 -362q-1 -8 -7 -13.5t-13 -5.5h-35q-7 0 -11 5.5t-3 13.5z" />
    <glyph glyph-name="OE" unicode="&#x152;" horiz-adv-x="889" 
d="M61 310q0 81 30 153.5t82 127.5t120.5 87t145.5 32q16 0 30 -1.5t25 -3.5q12 -3 23 -5h356q8 0 11.5 -5.5t2.5 -13.5l-4 -29q-1 -8 -6.5 -13.5t-12.5 -5.5h-297l-34 -244h252q7 0 12 -5.5t3 -13.5l-5 -29q-3 -19 -19 -19h-253l-36 -255h297q8 0 11.5 -5.5t2.5 -13.5
l-4 -29q-1 -8 -6.5 -13.5t-12.5 -5.5h-357q-12 -3 -25 -5q-25 -5 -55 -5q-57 0 -107.5 24.5t-88 67.5t-59.5 101.5t-22 126.5zM133 310q0 -51 16 -96.5t44.5 -79.5t68 -54t86.5 -20q32 0 63 7l79 564q-32 8 -61 8q-57 0 -110.5 -26t-94.5 -71t-66 -105t-25 -127z" />
    <glyph glyph-name="oe" unicode="&#x153;" horiz-adv-x="689" 
d="M29 171q0 48 16.5 91.5t45 76t66.5 52t82 19.5q43 0 74 -24t50 -61q29 38 73 61.5t92 23.5q61 0 92 -30t31 -75q0 -66 -68 -100t-200 -22q-2 -25 3.5 -48.5t18 -41.5t30.5 -29t41 -11q26 0 49 10t38 20q20 12 29 -4l9 -15q5 -8 5 -14t-10 -14q-20 -14 -54.5 -30
t-79.5 -16t-75.5 22.5t-48.5 58.5q-29 -35 -70.5 -58t-86.5 -23q-34 0 -62 14.5t-48 39t-31 57.5t-11 70zM393 239q89 -8 139 9t50 53q0 20 -16 34t-47 14q-21 0 -41 -8.5t-37.5 -23.5t-30 -35t-17.5 -43zM189 56q26 0 50.5 13t43 35.5t30 52.5t11.5 65q0 25 -6.5 47
t-19 38.5t-30.5 26.5t-40 10q-25 0 -48.5 -13t-42 -36.5t-29.5 -55t-11 -67.5q0 -23 6.5 -44t18.5 -37t29 -25.5t38 -9.5z" />
    <glyph glyph-name="Scaron" unicode="&#x160;" horiz-adv-x="501" 
d="M34 76q-5 6 -6.5 12.5t8.5 16.5l16 17q9 9 16.5 11.5t15.5 -6.5q5 -6 16.5 -17.5t29.5 -23.5t42.5 -20.5t55.5 -8.5q25 0 48.5 10t41.5 26.5t29 38.5t11 46q0 47 -34 79.5t-96 68.5q-30 17 -54.5 35t-42.5 39t-27.5 47t-9.5 61q0 31 11 66.5t36 65.5t66.5 50t103.5 20
q36 0 63.5 -7t47 -16t30.5 -17t14 -11q4 -3 7.5 -11.5t-6.5 -22.5l-11 -16q-8 -10 -16 -13.5t-17 4.5q-8 6 -21 13.5t-28.5 14t-33.5 11t-36 4.5q-34 0 -59.5 -12.5t-42 -31.5t-24.5 -41t-8 -41q0 -42 26.5 -71.5t74.5 -55.5q36 -20 67 -39.5t53.5 -43.5t35.5 -53t13 -68
q0 -42 -14.5 -77.5t-42.5 -62t-69 -41.5t-93 -15q-42 0 -75 11.5t-56.5 26.5t-37.5 29t-18 19zM325 764q-5 0 -10.5 4t-8.5 8l-84 91q-8 9 2 19l14 15q5 5 9.5 7.5t11.5 -3.5l78 -66l102 71q15 11 22 -3l9 -18q5 -9 2.5 -15t-7.5 -9l-119 -94q-4 -3 -8 -5t-10 -2h-3z" />
    <glyph glyph-name="scaron" unicode="&#x161;" horiz-adv-x="336" 
d="M19 35q-3 3 -4.5 9.5t2.5 11.5l17 23q11 14 24 3q11 -9 23 -16q11 -6 25.5 -10.5t31.5 -4.5q28 0 44.5 15t16.5 39q0 22 -16 37t-48 35q-16 9 -31.5 20t-27.5 25t-19.5 31.5t-7.5 38.5q0 19 6 39.5t21 38t41 29t65 11.5q36 0 61 -10.5t37 -20.5q5 -5 6.5 -12.5
t-3.5 -15.5l-14 -20q-6 -8 -13 -9t-13 3q-11 6 -22 10q-10 4 -22 7t-24 3q-32 0 -43.5 -15.5t-11.5 -29.5q0 -22 15.5 -34.5t38.5 -26.5q20 -11 38 -23t32 -26.5t22.5 -32t8.5 -40.5q0 -25 -9 -48t-27 -40.5t-45 -28t-63 -10.5q-42 0 -70.5 16t-41.5 29zM207 544
q-5 0 -10.5 4t-8.5 8l-84 91q-8 9 2 19l14 15q5 5 9.5 7.5t11.5 -3.5l78 -66l102 71q15 11 22 -3l9 -18q5 -9 2.5 -15t-7.5 -9l-119 -94q-4 -3 -8 -5t-10 -2h-3z" />
    <glyph glyph-name="Ydieresis" unicode="&#x178;" horiz-adv-x="518" 
d="M227 337l-170 339q-5 9 -1 16.5t15 7.5h46q5 0 8.5 -3t5.5 -6l139 -285h2l222 285q2 3 6.5 6t9.5 3h48q11 0 14 -9.5t-4 -19.5l-264 -333l-45 -319q-1 -8 -7 -13.5t-13 -5.5h-42q-8 0 -12 5.5t-3 13.5zM411 792q-17 0 -28 12t-11 29q0 23 16 38.5t36 15.5q18 0 29 -12
t11 -30q0 -22 -16 -37.5t-37 -15.5zM236 792q-17 0 -28 12t-11 29q0 23 16 38.5t37 15.5q17 0 28 -12t11 -30q0 -22 -16 -37.5t-37 -15.5z" />
    <glyph glyph-name="Zcaron" unicode="&#x17d;" horiz-adv-x="493" 
d="M10 0q-7 0 -11.5 5.5t-2.5 13.5l2 18l404 593h-277q-7 0 -12 5.5t-3 13.5l5 32q2 8 7.5 13.5t12.5 5.5h366q7 0 11.5 -5.5t2.5 -13.5l-2 -13l-407 -598h288q8 0 12.5 -5.5t2.5 -13.5l-5 -32q-2 -8 -7 -13.5t-13 -5.5h-374zM315 764q-5 0 -10.5 4t-8.5 8l-84 91q-8 9 2 19
l14 15q5 5 9.5 7.5t11.5 -3.5l78 -66l102 71q15 11 22 -3l9 -18q5 -9 2.5 -15t-7.5 -9l-119 -94q-4 -3 -8 -5t-10 -2h-3z" />
    <glyph glyph-name="zcaron" unicode="&#x17e;" horiz-adv-x="340" 
d="M15 0q-7 0 -11 5.5t-3 13.5l1 10l215 306v2h-147q-7 0 -10.5 5.5t-2.5 13.5l3 25q1 8 6.5 13.5t12.5 5.5h228q11 0 15 -8.5t-3 -18.5l-212 -309v-1h135q16 0 14 -19l-3 -25q-1 -8 -6.5 -13.5t-13.5 -5.5h-218zM203 544q-5 0 -10.5 4t-8.5 8l-84 91q-8 9 2 19l14 15
q5 5 9.5 7.5t11.5 -3.5l78 -66l102 71q15 11 22 -3l9 -18q5 -9 2.5 -15t-7.5 -9l-119 -94q-4 -3 -8 -5t-10 -2h-3z" />
    <glyph glyph-name="florin" unicode="&#x192;" horiz-adv-x="303" 
d="M104 340h-57q-8 0 -12 5.5t-2 13.5l3 22q1 8 6.5 13.5t12.5 5.5h57l20 140q12 88 56 129t110 41q38 0 61 -14t34 -27q9 -11 0 -23l-19 -24q-11 -14 -23 -1q-7 8 -25.5 17.5t-35.5 9.5q-30 0 -55 -25t-33 -83l-19 -140h102q17 0 14 -19l-3 -22q-1 -8 -6.5 -13.5
t-13.5 -5.5h-102l-67 -480q-13 -88 -55.5 -129t-111.5 -41q-38 0 -60.5 14t-33.5 27q-4 5 -5 11.5t4 11.5l20 24q10 13 23 1q7 -8 25.5 -17.5t35.5 -9.5q30 0 54.5 25t32.5 83z" />
    <glyph glyph-name="circumflex" unicode="&#x2c6;" horiz-adv-x="336" 
d="M63 572q-5 9 -2.5 15t7.5 9l119 94q4 3 8 5t10 2h3q5 0 10.5 -4t8.5 -8l84 -91q8 -9 -2 -19l-14 -15q-5 -5 -9.5 -7.5t-11.5 3.5l-78 66l-102 -71q-15 -11 -22 3z" />
    <glyph glyph-name="tilde" unicode="&#x2dc;" horiz-adv-x="342" 
d="M64 583q-7 5 -6.5 11.5t2.5 11.5q3 7 10 21t19 28t28.5 24.5t37.5 10.5q20 0 32.5 -11.5t21.5 -25t17 -24.5t20 -11q18 0 27.5 17t14.5 30q3 8 9 12.5t16 -1.5l14 -8q6 -4 7.5 -10.5t-0.5 -12.5q-3 -10 -10.5 -24.5t-19 -28t-27.5 -23t-36 -9.5q-18 0 -30.5 11.5
t-22.5 25t-19 25t-19 11.5t-17.5 -5.5t-13 -13t-9 -16.5t-6.5 -15q-3 -7 -10 -10t-14 2z" />
    <glyph glyph-name="endash" unicode="&#x2013;" horiz-adv-x="540" 
d="M100 223q-8 0 -12.5 5t-2.5 13l2 11q3 19 20 19h335q8 0 12.5 -5.5t2.5 -13.5l-2 -11q-2 -8 -6.5 -13t-12.5 -5h-336z" />
    <glyph glyph-name="emdash" unicode="&#x2014;" horiz-adv-x="738" 
d="M100 223q-8 0 -12.5 5t-2.5 13l2 11q3 19 20 19h533q8 0 12.5 -5.5t2.5 -13.5l-2 -11q-2 -8 -6.5 -13t-12.5 -5h-534z" />
    <glyph glyph-name="quoteleft" unicode="&#x2018;" horiz-adv-x="196" 
d="M120 426q-19 0 -35 14t-16 54q0 35 11.5 67t27.5 59t34 48t31 33q14 12 22 2l11 -14q5 -7 2 -12t-10 -12q-4 -4 -15 -14t-23 -25.5t-22.5 -37.5t-14.5 -49q2 1 6 1h8q20 0 32.5 -15t12.5 -35q0 -27 -19 -45.5t-43 -18.5z" />
    <glyph glyph-name="quoteright" unicode="&#x2019;" horiz-adv-x="193" 
d="M71 447q-5 7 -2 12t10 12q4 4 14.5 14t22.5 25.5t23 37.5t15 49q-2 -1 -6 -1h-8q-20 0 -32.5 15t-12.5 35q0 27 19 45.5t43 18.5q19 0 35 -14t16 -54q0 -35 -11.5 -67t-27.5 -59t-34 -48t-31 -33q-14 -12 -22 -2z" />
    <glyph glyph-name="quotesinglbase" unicode="&#x201a;" horiz-adv-x="225" 
d="M25 40q0 27 19 45.5t43 18.5q19 0 35 -14t16 -54q0 -35 -11.5 -67t-27.5 -59t-34 -48t-31 -33q-14 -12 -22 -2l-11 14q-5 7 -2 12t10 12q4 4 14.5 14t22.5 25.5t23 37.5t15 49q-2 -1 -6 -1h-8q-20 0 -32.5 15t-12.5 35z" />
    <glyph glyph-name="quotedblleft" unicode="&#x201c;" horiz-adv-x="362" 
d="M286 426q-19 0 -35 14t-16 54q0 35 11.5 67t27.5 59t34 48t31 33q14 12 22 2l11 -14q5 -7 2 -12t-10 -12q-4 -4 -15 -14t-23 -25.5t-22.5 -37.5t-14.5 -49q2 1 6 1h8q20 0 32.5 -15t12.5 -35q0 -27 -19 -45.5t-43 -18.5zM120 426q-19 0 -35 14t-16 54q0 35 11.5 67
t27.5 59t34 48t31 33q14 12 22 2l11 -14q5 -7 2 -12t-10 -12q-4 -4 -15 -14t-23 -25.5t-22.5 -37.5t-14.5 -49q2 1 6 1h8q20 0 32.5 -15t12.5 -35q0 -27 -19 -45.5t-43 -18.5z" />
    <glyph glyph-name="quotedblright" unicode="&#x201d;" horiz-adv-x="359" 
d="M237 447q-5 7 -2 12t10 12q4 4 14.5 14t22.5 25.5t23 37.5t15 49q-2 -1 -6 -1h-8q-20 0 -32.5 15t-12.5 35q0 27 19 45.5t43 18.5q19 0 35 -14t16 -54q0 -35 -11.5 -67t-27.5 -59t-34 -48t-31 -33q-14 -12 -22 -2zM71 447q-5 7 -2 12t10 12q4 4 14.5 14t22.5 25.5
t23 37.5t15 49q-2 -1 -6 -1h-8q-20 0 -32.5 15t-12.5 35q0 27 19 45.5t43 18.5q19 0 35 -14t16 -54q0 -35 -11.5 -67t-27.5 -59t-34 -48t-31 -33q-14 -12 -22 -2z" />
    <glyph glyph-name="quotedblbase" unicode="&#x201e;" horiz-adv-x="390" 
d="M189 40q0 27 19 45.5t43 18.5q19 0 35 -14t16 -54q0 -35 -11.5 -67t-27.5 -59t-34 -48t-31 -33q-14 -12 -22 -2l-11 14q-5 7 -2 12t10 12q4 4 14.5 14t22.5 25.5t23 37.5t15 49q-2 -1 -6 -1h-8q-20 0 -32.5 15t-12.5 35zM24 38q0 27 19 45.5t43 18.5q20 0 36 -14t16 -54
q0 -35 -11.5 -67t-27.5 -59t-34.5 -48t-31.5 -33q-14 -12 -22 -2l-10 14q-9 9 8 24q4 3 14.5 13t22.5 26t22.5 38t14.5 49q-3 -1 -13 -1q-20 0 -33 15t-13 35z" />
    <glyph glyph-name="dagger" unicode="&#x2020;" horiz-adv-x="556" 
d="M244 334h-174q-7 0 -11 5.5t-3 13.5l4 28q1 8 6.5 13.5t12.5 5.5h172l40 281q1 8 6.5 13.5t12.5 5.5h52q7 0 11.5 -5.5t2.5 -13.5l-39 -281h175q7 0 11 -5.5t3 -13.5l-4 -28q-1 -8 -6.5 -13.5t-12.5 -5.5h-178l-104 -618q-1 -6 -7 -11t-13 -5h-11q-6 0 -11 5t-4 11z" />
    <glyph glyph-name="daggerdbl" unicode="&#x2021;" horiz-adv-x="556" 
d="M40 47q1 8 6.5 13.5t12.5 5.5h154l38 333v1h-172q-7 0 -11 5.5t-3 13.5l4 28q1 8 7 13.5t13 5.5h171l31 215q1 8 6.5 13.5t12.5 5.5h52q7 0 11.5 -5.5t2.5 -13.5l-30 -215h175q7 0 11 -5.5t3 -13.5l-4 -28q-1 -8 -6.5 -13.5t-12.5 -5.5h-175l-56 -334h157q7 0 11 -5.5
t3 -13.5l-4 -28q-1 -8 -6.5 -13.5t-12.5 -5.5h-160l-48 -284q-1 -6 -7 -11t-13 -5h-11q-6 0 -11 5t-4 11l31 284h-156q-7 0 -11 5.5t-3 13.5z" />
    <glyph glyph-name="bullet" unicode="&#x2022;" horiz-adv-x="323" 
d="M146 119q-36 0 -60 27t-24 65q0 25 9.5 47t25.5 38.5t36.5 26.5t42.5 10q38 0 62.5 -28t24.5 -67q0 -24 -9.5 -46t-26 -38t-37.5 -25.5t-44 -9.5z" />
    <glyph glyph-name="ellipsis" unicode="&#x2026;" horiz-adv-x="568" 
d="M376 40q0 27 19 45.5t43 18.5q20 0 33 -14.5t13 -34.5q0 -26 -18.5 -45.5t-43.5 -19.5q-20 0 -33 15t-13 35zM196 40q0 27 19 45.5t43 18.5q20 0 33 -14.5t13 -35.5q0 -26 -18.5 -45t-43.5 -19q-20 0 -33 15t-13 35zM19 40q0 27 19 45.5t43 18.5q20 0 33 -14.5t13 -35.5
q0 -26 -18.5 -45t-43.5 -19q-20 0 -33 15t-13 35z" />
    <glyph glyph-name="perthousand" unicode="&#x2030;" horiz-adv-x="887" 
d="M188 440q-21 0 -39.5 9t-33 25t-23 37.5t-8.5 45.5q0 31 11 59t30 49t45 33t56 12q22 0 41 -9t33 -25t22 -37.5t8 -45.5q0 -32 -11.5 -60t-31 -48.5t-45.5 -32.5t-54 -12zM489 690q6 10 16 10h24q10 0 13.5 -8.5t-2.5 -18.5l-404 -663q-2 -3 -6 -6.5t-10 -3.5h-22
q-10 0 -13.5 8.5t2.5 18.5zM196 497q15 0 28.5 7t24 19t17 28t6.5 34q0 27 -15.5 46.5t-38.5 19.5q-15 0 -29.5 -7t-25 -19t-17 -28t-6.5 -34q0 -28 15.5 -47t40.5 -19zM585 107q0 31 11 59t30 49t45 33t56 12q22 0 41 -9t33 -25t22 -37.5t8 -45.5q0 -32 -11.5 -60
t-31 -48.5t-45.5 -32.5t-54 -12q-21 0 -39.5 9t-33 25t-23 37.5t-8.5 45.5zM307 107q0 31 11 59t30 49t45 33t56 12q22 0 41 -9t33 -25t22 -37.5t8 -45.5q0 -32 -11.5 -60t-31 -48.5t-45.5 -32.5t-54 -12q-21 0 -39.5 9t-33 25t-23 37.5t-8.5 45.5zM641 113q0 -28 15.5 -47
t40.5 -19q15 0 28.5 7t24 19t17 28t6.5 34q0 27 -15.5 46.5t-38.5 19.5q-15 0 -29.5 -7t-25 -19t-17 -28t-6.5 -34zM363 113q0 -28 15.5 -47t40.5 -19q15 0 28.5 7t24 19t17 28t6.5 34q0 27 -15.5 46.5t-38.5 19.5q-15 0 -29.5 -7t-25 -19t-17 -28t-6.5 -34z" />
    <glyph glyph-name="guilsinglleft" unicode="&#x2039;" horiz-adv-x="239" 
d="M30 194q-3 6 -1.5 12.5t4.5 11.5l114 148q3 4 8 8t12 4h22q11 0 13.5 -9.5t-4.5 -21.5l-86 -144l39 -142q3 -12 -1.5 -21t-16.5 -9h-18q-9 0 -13 8z" />
    <glyph glyph-name="guilsinglright" unicode="&#x203a;" horiz-adv-x="238" 
d="M29 31q-11 0 -13.5 9.5t4.5 21.5l86 144l-39 142q-3 12 1.5 21t16.5 9h18q9 0 13 -8l72 -155q3 -6 1.5 -12.5t-4.5 -11.5l-114 -148q-3 -4 -8 -8t-12 -4h-22z" />
    <glyph glyph-name="Euro" unicode="&#x20ac;" horiz-adv-x="681" 
d="M50 253q-7 0 -11 5.5t-3 13.5l1 7q2 8 7 13.5t12 5.5h37q0 14 1.5 35.5t5.5 39.5h-33q-7 0 -11 5.5t-3 13.5l1 7q1 8 6.5 13.5t12.5 5.5h39q19 63 53.5 116.5t80.5 92.5t103 61t123 22q69 0 117 -24.5t88 -68.5q11 -14 -3 -28l-28 -21q-7 -7 -14.5 -7t-13.5 8
q-29 35 -70.5 52t-86.5 17q-44 0 -84.5 -17t-75.5 -46.5t-62.5 -70t-43.5 -86.5h246q8 0 12 -5.5t2 -13.5l-1 -8q-1 -8 -6.5 -13t-12.5 -5h-253q-4 -16 -5.5 -35t-1.5 -40h213q8 0 12 -5.5t2 -13.5l-1 -8q-1 -8 -6 -13t-13 -5h-204q7 -41 24.5 -75.5t43.5 -60t60.5 -40
t74.5 -14.5q27 0 50.5 6.5t44.5 17t40.5 24.5t39.5 29q8 6 13 6t9 -3l30 -29q6 -6 3 -14t-8 -13q-52 -51 -112 -74t-120 -23q-54 0 -101 19.5t-84 54.5t-60.5 83.5t-29.5 105.5h-46z" />
    <glyph glyph-name="trademark" unicode="&#x2122;" horiz-adv-x="649" 
d="M317 398q-9 0 -13 7t-1 16l84 269q2 6 6.5 10.5t13.5 4.5h3q7 0 10 -3.5t4 -7.5l44 -212l105 212q2 4 6 7.5t11 3.5h3q7 0 10.5 -4.5t4.5 -10.5l10 -270q0 -9 -6 -15.5t-14 -6.5h-15q-8 0 -11.5 5t-3.5 12l-6 165l-88 -176q-4 -9 -16 -9h-5q-12 0 -14 10l-37 175
l-53 -166q-2 -6 -7 -11t-13 -5h-12zM157 398q-8 0 -12 5.5t-2 13.5l33 234h-63q-7 0 -11.5 5.5t-2.5 13.5l2 11q2 8 7 13.5t12 5.5h174q8 0 12.5 -5.5t2.5 -13.5l-2 -11q-3 -19 -20 -19h-62l-33 -234q-1 -8 -6.5 -13.5t-12.5 -5.5h-16z" />
    <glyph glyph-name="glyph168" horiz-adv-x="336" 
d="M180 544q-5 0 -10.5 4t-8.5 8l-84 91q-8 9 2 19l14 15q5 5 9.5 7.5t11.5 -3.5l78 -66l102 71q15 11 22 -3l9 -18q5 -9 2.5 -15t-7.5 -9l-119 -94q-4 -3 -8 -5t-10 -2h-3z" />
    <glyph glyph-name="glyph172" horiz-adv-x="261" 
d="M140 492q-38 0 -61.5 27.5t-23.5 66.5q0 26 9 48.5t25 39.5t36.5 26.5t44.5 9.5q37 0 61 -27.5t24 -66.5q0 -26 -9.5 -48.5t-25 -39.5t-36.5 -26.5t-44 -9.5zM146 540q23 0 41 21t18 48q0 20 -10.5 35.5t-31.5 15.5q-23 0 -41.5 -19.5t-18.5 -46.5q0 -21 11 -37.5
t32 -16.5z" />
  </font>
</defs>
</svg>
